<svg width="657" height="507" viewBox="0 0 657 507" fill="none" xmlns="http://www.w3.org/2000/svg">
<g clip-path="url(#clip0_1195_71623)">
<path d="M350.72 378.66C348.95 389.37 339.63 397.57 328.43 397.57C317.23 397.57 307.9 389.37 306.14 378.66H249.1V502.27H407.76V378.66H350.72Z" fill="#DFDFDF"/>
<path d="M267.54 501.81H251.86V504.58H267.54V501.81Z" fill="#BCB9CB"/>
<path d="M406.37 502.27H390.69V505.04H406.37V502.27Z" fill="#BCB9CB"/>
<path d="M408.22 492.47H249.56V496.77H408.22V492.47Z" fill="#2F2E41"/>
<path d="M647.51 381.89H9.35C4.47 381.89 0.5 377.92 0.5 373.04V8.85C0.5 3.97 4.47 0 9.35 0H647.51C652.39 0 656.36 3.97 656.36 8.85V373.05C656.36 377.93 652.39 381.9 647.51 381.9V381.89Z" fill="#2F2E41"/>
<path d="M641.13 15.6797H16.6399V368.05H641.13V15.6797Z" fill="white"/>
<path d="M329.25 129.57H290.84C278.77 129.57 268.95 119.75 268.95 107.68C268.95 95.61 278.77 85.79 290.84 85.79H329.25C341.32 85.79 351.14 95.61 351.14 107.68C351.14 119.75 341.32 129.57 329.25 129.57Z" fill="#DFDFDF"/>
<path d="M291.61 124.58C300.944 124.58 308.51 117.014 308.51 107.68C308.51 98.3467 300.944 90.7803 291.61 90.7803C282.276 90.7803 274.71 98.3467 274.71 107.68C274.71 117.014 282.276 124.58 291.61 124.58Z" fill="white"/>
<path d="M329.25 280.44H290.84C278.77 280.44 268.95 270.62 268.95 258.55C268.95 246.48 278.77 236.66 290.84 236.66H329.25C341.32 236.66 351.14 246.48 351.14 258.55C351.14 270.62 341.32 280.44 329.25 280.44Z" fill="#DFDFDF"/>
<path d="M291.61 275.45C300.944 275.45 308.51 267.884 308.51 258.55C308.51 249.217 300.944 241.65 291.61 241.65C282.276 241.65 274.71 249.217 274.71 258.55C274.71 267.884 282.276 275.45 291.61 275.45Z" fill="white"/>
<path d="M329.25 204.86H290.84C278.77 204.86 268.95 195.04 268.95 182.97C268.95 170.9 278.77 161.08 290.84 161.08H329.25C341.32 161.08 351.14 170.9 351.14 182.97C351.14 195.04 341.32 204.86 329.25 204.86Z" fill="#DFDFDF"/>
<path d="M328.06 199.87C337.394 199.87 344.96 192.304 344.96 182.97C344.96 173.637 337.394 166.07 328.06 166.07C318.726 166.07 311.16 173.637 311.16 182.97C311.16 192.304 318.726 199.87 328.06 199.87Z" fill="#005CFF"/>
<path d="M149.5 505.53C149.5 506.03 149.9 506.44 150.41 506.44H506.44C506.94 506.44 507.35 506.04 507.35 505.53C507.35 505.02 506.95 504.62 506.44 504.62H150.41C149.91 504.62 149.5 505.02 149.5 505.53Z" fill="#2F2E43"/>
<path d="M399.44 198.22L382.5 203.79V179.4H397.87L399.44 198.22Z" fill="#F2A7AA"/>
<path d="M384.6 186.15C393.923 186.15 401.48 178.592 401.48 169.27C401.48 159.947 393.923 152.39 384.6 152.39C375.277 152.39 367.72 159.947 367.72 169.27C367.72 178.592 375.277 186.15 384.6 186.15Z" fill="#F2A7AA"/>
<path d="M389.23 167.6C386.4 167.51 384.55 164.66 383.45 162.05C382.35 159.44 381.22 156.45 378.6 155.37C376.46 154.49 372.68 160.44 370.98 158.85C369.22 157.2 370.94 148.72 372.81 147.19C374.68 145.66 377.24 145.37 379.65 145.26C385.53 144.99 391.45 145.46 397.22 146.67C400.79 147.41 404.46 148.53 407.03 151.11C410.29 154.38 411.12 159.32 411.36 163.93C411.6 168.65 411.33 173.59 409.03 177.72C406.73 181.85 401.93 184.9 397.33 183.84C396.87 181.34 397.33 178.77 397.52 176.23C397.7 173.69 397.52 170.95 395.96 168.92C394.4 166.89 391.1 166.1 389.29 167.89" fill="#36344E"/>
<path d="M410 173.45C411.69 172.21 413.71 171.18 415.79 171.43C418.04 171.7 419.93 173.55 420.51 175.74C421.09 177.93 420.44 180.34 419.05 182.13C417.66 183.92 415.6 185.1 413.41 185.69C412.15 186.03 410.76 186.17 409.56 185.66C407.78 184.9 406.83 182.63 407.52 180.82" fill="#36344E"/>
<path d="M393.85 469.58H377.98V492.09H393.85V469.58Z" fill="#F2A7AA"/>
<path d="M362.52 505.72C360.85 505.72 359.37 505.68 358.25 505.58C354.03 505.19 350.01 502.08 347.99 500.26C347.08 499.44 346.79 498.14 347.26 497.02C347.6 496.21 348.28 495.61 349.12 495.37L360.26 492.19L378.3 480.02L378.5 480.38C378.58 480.51 380.35 483.7 380.94 485.86C381.17 486.68 381.11 487.36 380.76 487.89C380.52 488.26 380.19 488.47 379.92 488.59C380.25 488.93 381.27 489.62 384.42 490.13C389.02 490.86 389.99 486.09 390.03 485.89L390.06 485.73L390.2 485.64C392.39 484.23 393.74 483.59 394.2 483.73C394.49 483.82 394.98 483.96 396.28 496.95C396.41 497.36 397.33 500.35 396.7 503.2C396.02 506.31 382.44 505.24 379.73 504.99C379.65 504.99 369.48 505.72 362.52 505.72Z" fill="#36344E"/>
<path d="M439.031 451.886L425.565 460.284L437.477 479.384L450.943 470.986L439.031 451.886Z" fill="#F2A7AA"/>
<path d="M421.15 502.63C419.29 502.63 417.58 502.41 416.36 502.19C415.16 501.98 414.22 501.03 414.03 499.82C413.89 498.96 414.15 498.09 414.73 497.44L422.5 488.85L431.36 468.98L431.72 469.18C431.86 469.25 435.05 471.02 436.69 472.54C437.32 473.12 437.63 473.73 437.62 474.36C437.62 474.8 437.45 475.15 437.28 475.4C437.74 475.52 438.97 475.56 441.91 474.32C446.2 472.51 444.5 467.95 444.42 467.76L444.36 467.61L444.43 467.46C445.54 465.1 446.34 463.85 446.81 463.72C447.1 463.64 447.59 463.51 455.57 473.83C455.9 474.1 458.26 476.16 459.24 478.91C460.31 481.91 448.22 488.18 445.79 489.41C445.72 489.47 433.06 498.67 427.87 501.28C425.81 502.32 423.37 502.64 421.15 502.64V502.63Z" fill="#36344E"/>
<path d="M405.53 281.31H361.1L357.07 322.64L374.71 475.35H397.39L388.32 387.15L425.11 466.78L445.27 452.67L416.54 378.33C416.54 378.33 426.8 313.57 418.74 297.44C410.68 281.31 405.53 281.31 405.53 281.31Z" fill="#36344E"/>
<path d="M427.63 283.83H357.07L378.24 192.6H408.98L427.63 283.83Z" fill="#005CFF"/>
<path d="M339.55 190.81C338.42 185.26 340.49 180.19 344.15 179.49C347.82 178.79 351.7 182.72 352.83 188.27C353.31 190.48 353.24 192.77 352.61 194.96L357.07 218.53L345.54 220.35L342.37 196.92C340.94 195.13 339.97 193.04 339.55 190.81Z" fill="#F2A7AA"/>
<path d="M408.23 192.6H381.12L362.84 229.15L355.95 201.76L340.8 203.37C340.8 203.37 344.38 256.89 360.05 255.08C375.72 253.27 412.25 205.05 408.23 192.6Z" fill="#005CFF"/>
<path d="M438.51 331.62C439.64 337.17 437.57 342.24 433.91 342.94C430.24 343.64 426.36 339.71 425.23 334.16C424.75 331.95 424.82 329.66 425.45 327.47L420.99 303.9L432.52 302.08L435.69 325.51C437.12 327.3 438.09 329.39 438.51 331.62Z" fill="#F2A7AA"/>
<path d="M392.78 192.6C392.78 192.6 408.19 191.95 408.99 192.6C413.19 196.04 437.86 319.94 437.86 319.94H422.24L392.79 192.6H392.78Z" fill="#005CFF"/>
</g>
<defs>
<clipPath id="clip0_1195_71623">
<rect width="655.86" height="506.44" fill="white" transform="translate(0.5)"/>
</clipPath>
</defs>
</svg>
