<svg width="655" height="626" viewBox="0 0 655 626" fill="none" xmlns="http://www.w3.org/2000/svg">
<g clip-path="url(#clip0_1195_71651)">
<path d="M130.624 480.601L10.9105 425.473C6.60273 423.483 3.26007 419.866 1.61589 415.415C-0.0282922 410.964 0.160269 406.043 2.14018 401.73L17.5628 368.239C19.5525 363.932 23.1696 360.589 27.6206 358.945C32.0716 357.301 36.9931 357.489 41.3053 359.469L161.019 414.598C165.327 416.587 168.669 420.204 170.313 424.655C171.958 429.106 171.769 434.028 169.789 438.34L154.367 471.831C152.377 476.139 148.76 479.481 144.309 481.125C139.858 482.77 134.936 482.581 130.624 480.601Z" fill="#F2F2F2"/>
<path d="M111.984 459.31L39.2068 425.795C36.7562 424.664 34.8547 422.606 33.9193 420.074C32.984 417.542 33.0912 414.742 34.2176 412.289L46.4383 385.751C47.5701 383.3 49.6278 381.399 52.16 380.464C54.6921 379.528 57.4918 379.635 59.945 380.762L132.723 414.276C135.173 415.408 137.075 417.466 138.01 419.998C138.945 422.53 138.838 425.33 137.712 427.783L125.491 454.32C124.359 456.771 122.302 458.673 119.769 459.608C117.237 460.543 114.437 460.436 111.984 459.31Z" fill="white"/>
<path d="M111.566 460.218L38.7886 426.703C36.0972 425.46 34.0088 423.2 32.9816 420.42C31.9544 417.639 32.0722 414.564 33.3092 411.87L45.5297 385.333C46.7727 382.641 49.0325 380.553 51.8134 379.526C54.5943 378.498 57.6691 378.616 60.3632 379.853L133.141 413.367C135.832 414.61 137.92 416.87 138.948 419.651C139.975 422.432 139.857 425.507 138.62 428.201L126.399 454.738C125.156 457.429 122.897 459.518 120.116 460.545C117.335 461.572 114.26 461.455 111.566 460.218ZM59.5266 381.67C57.3144 380.654 54.7896 380.557 52.5061 381.401C50.2227 382.244 48.367 383.959 47.3463 386.169L35.1258 412.706C34.1101 414.919 34.0134 417.443 34.8569 419.727C35.7004 422.01 37.4152 423.866 39.6252 424.887L112.403 458.401C114.615 459.417 117.14 459.513 119.423 458.67C121.706 457.826 123.562 456.111 124.583 453.901L136.803 427.364C137.819 425.152 137.916 422.627 137.072 420.344C136.229 418.06 134.514 416.205 132.304 415.184L59.5266 381.67Z" fill="#3F3D56"/>
<path d="M90.9444 418.917L90.5423 418.732C90.3306 418.635 90.1401 418.498 89.9816 418.327C89.8232 418.156 89.7001 417.956 89.6192 417.738C89.5382 417.519 89.5012 417.287 89.5101 417.054C89.519 416.822 89.5737 416.593 89.6711 416.382C89.7685 416.17 89.9067 415.98 90.0777 415.822C90.2487 415.664 90.4492 415.541 90.6677 415.461C90.8862 415.38 91.1184 415.344 91.3511 415.353C91.5838 415.362 91.8123 415.418 92.0236 415.516L92.4256 415.701C92.8512 415.898 93.1812 416.256 93.3432 416.696C93.5052 417.136 93.4861 417.622 93.2899 418.048C93.0937 418.474 92.7366 418.805 92.2969 418.968C91.8572 419.131 91.3707 419.113 90.9444 418.917Z" fill="#CCCCCC"/>
<path d="M108.181 437.577L86.0667 427.393C85.855 427.296 85.6645 427.159 85.5061 426.988C85.3477 426.817 85.2245 426.617 85.1436 426.399C85.0627 426.18 85.0256 425.948 85.0345 425.716C85.0434 425.483 85.0981 425.254 85.1955 425.043C85.2929 424.831 85.4311 424.641 85.6021 424.483C85.7731 424.325 85.9736 424.202 86.1921 424.122C86.4106 424.041 86.6429 424.005 86.8755 424.014C87.1082 424.024 87.3367 424.079 87.548 424.177L109.663 434.361C109.874 434.457 110.065 434.595 110.223 434.766C110.382 434.937 110.505 435.137 110.586 435.355C110.667 435.573 110.704 435.806 110.695 436.038C110.686 436.271 110.631 436.5 110.534 436.711C110.436 436.923 110.298 437.113 110.127 437.271C109.956 437.429 109.756 437.552 109.537 437.632C109.319 437.713 109.087 437.749 108.854 437.74C108.621 437.73 108.393 437.675 108.181 437.577Z" fill="#CCCCCC"/>
<path d="M70.1454 424.623C76.7021 424.623 82.0174 419.308 82.0174 412.751C82.0174 406.194 76.7021 400.879 70.1454 400.879C63.5887 400.879 58.2734 406.194 58.2734 412.751C58.2734 419.308 63.5887 424.623 70.1454 424.623Z" fill="#005CFF"/>
<path d="M614.33 427.153H169.599C158.88 427.141 148.603 422.878 141.024 415.298C133.444 407.719 129.181 397.442 129.169 386.723V40.4301C129.181 29.7111 133.444 19.4347 141.024 11.8552C148.603 4.2757 158.88 0.0121882 169.599 0H614.33C625.049 0.0121882 635.326 4.2757 642.905 11.8552C650.485 19.4347 654.748 29.7111 654.76 40.4301V386.723C654.748 397.442 650.485 407.719 642.905 415.298C635.326 422.878 625.049 427.141 614.33 427.153Z" fill="#F2F2F2"/>
<path d="M518.465 358.076H265.465C259.367 358.069 253.521 355.644 249.209 351.332C244.897 347.02 242.471 341.174 242.465 335.076V92.0762C242.472 85.9783 244.897 80.1322 249.209 75.8204C253.521 71.5085 259.367 69.0831 265.465 69.0762H518.465C524.562 69.0831 530.409 71.5085 534.72 75.8204C539.032 80.1322 541.458 85.9783 541.465 92.0762V335.076C541.458 341.174 539.032 347.02 534.721 351.332C530.409 355.644 524.562 358.069 518.465 358.076Z" fill="white"/>
<path d="M518.465 358.076H265.465C259.367 358.069 253.521 355.644 249.209 351.332C244.897 347.02 242.471 341.174 242.465 335.076V92.0762C242.472 85.9783 244.897 80.1322 249.209 75.8204C253.521 71.5085 259.367 69.0831 265.465 69.0762H518.465C524.562 69.0831 530.409 71.5085 534.72 75.8204C539.032 80.1322 541.458 85.9783 541.465 92.0762V335.076C541.458 341.174 539.032 347.02 534.721 351.332C530.409 355.644 524.562 358.069 518.465 358.076ZM265.465 71.0762C259.897 71.0824 254.559 73.2969 250.622 77.2338C246.685 81.1707 244.471 86.5085 244.465 92.0762V335.076C244.471 340.644 246.685 345.982 250.622 349.918C254.559 353.855 259.897 356.07 265.465 356.076H518.465C524.032 356.07 529.37 353.855 533.307 349.918C537.244 345.982 539.458 340.644 539.465 335.076V92.0762C539.458 86.5085 537.244 81.1707 533.307 77.2338C529.37 73.2969 524.032 71.0824 518.465 71.0762H265.465Z" fill="#3F3D56"/>
<path d="M388.677 157.614H346.18C345.647 157.614 345.118 157.51 344.625 157.307C344.132 157.103 343.684 156.804 343.306 156.427C342.929 156.05 342.629 155.603 342.425 155.11C342.221 154.617 342.115 154.089 342.115 153.555C342.115 153.022 342.221 152.494 342.425 152.001C342.629 151.508 342.929 151.06 343.306 150.683C343.684 150.307 344.132 150.008 344.625 149.804C345.118 149.601 345.647 149.496 346.18 149.497H388.677C389.752 149.499 390.783 149.927 391.542 150.688C392.302 151.449 392.729 152.48 392.729 153.555C392.729 154.631 392.302 155.662 391.542 156.423C390.783 157.184 389.752 157.612 388.677 157.614Z" fill="#005CFF"/>
<path d="M483.677 318.614H441.18C440.647 318.614 440.118 318.51 439.625 318.307C439.132 318.103 438.684 317.804 438.306 317.427C437.929 317.05 437.629 316.603 437.425 316.11C437.221 315.617 437.115 315.089 437.115 314.555C437.115 314.022 437.221 313.494 437.425 313.001C437.629 312.508 437.929 312.06 438.306 311.683C438.684 311.307 439.132 311.008 439.625 310.804C440.118 310.601 440.647 310.496 441.18 310.497H483.677C484.752 310.499 485.783 310.927 486.542 311.688C487.302 312.449 487.729 313.48 487.729 314.555C487.729 315.631 487.302 316.662 486.542 317.423C485.783 318.184 484.752 318.612 483.677 318.614Z" fill="#005CFF"/>
<path d="M483.94 174.211H346.18C345.104 174.211 344.072 173.784 343.311 173.023C342.55 172.262 342.122 171.229 342.122 170.153C342.122 169.077 342.55 168.044 343.311 167.283C344.072 166.522 345.104 166.095 346.18 166.095H483.94C485.017 166.095 486.049 166.522 486.81 167.283C487.571 168.044 487.999 169.077 487.999 170.153C487.999 171.229 487.571 172.262 486.81 173.023C486.049 173.784 485.017 174.211 483.94 174.211Z" fill="#E6E6E6"/>
<path d="M311.182 173.043C317.949 173.043 323.434 167.558 323.434 160.792C323.434 154.025 317.949 148.54 311.182 148.54C304.416 148.54 298.931 154.025 298.931 160.792C298.931 167.558 304.416 173.043 311.182 173.043Z" fill="#005CFF"/>
<path d="M270.182 111.043C276.949 111.043 282.434 105.558 282.434 98.7916C282.434 92.0252 276.949 86.54 270.182 86.54C263.416 86.54 257.931 92.0252 257.931 98.7916C257.931 105.558 263.416 111.043 270.182 111.043Z" fill="#F2F2F2"/>
<path d="M309.511 167.167C309.3 167.167 309.091 167.118 308.902 167.023C308.713 166.929 308.548 166.791 308.421 166.622L305.079 162.165C304.971 162.022 304.892 161.859 304.847 161.686C304.803 161.512 304.793 161.332 304.818 161.154C304.843 160.977 304.903 160.806 304.994 160.652C305.085 160.497 305.206 160.362 305.349 160.255C305.493 160.147 305.656 160.069 305.83 160.025C306.003 159.98 306.184 159.971 306.361 159.996C306.539 160.022 306.709 160.082 306.864 160.174C307.018 160.265 307.152 160.387 307.259 160.53L309.446 163.446L315.062 155.021C315.262 154.721 315.573 154.512 315.927 154.44C316.28 154.369 316.648 154.44 316.949 154.639C317.25 154.838 317.46 155.149 317.532 155.502C317.605 155.856 317.534 156.224 317.336 156.525L317.33 156.533L310.645 166.56C310.524 166.742 310.362 166.891 310.171 166.997C309.98 167.103 309.767 167.161 309.549 167.167L309.511 167.167Z" fill="white"/>
<path d="M483.94 218.211H346.18C345.104 218.211 344.072 217.784 343.311 217.023C342.55 216.262 342.122 215.229 342.122 214.153C342.122 213.077 342.55 212.044 343.311 211.283C344.072 210.522 345.104 210.095 346.18 210.095H483.94C485.017 210.095 486.049 210.522 486.81 211.283C487.571 212.044 487.999 213.077 487.999 214.153C487.999 215.229 487.571 216.262 486.81 217.023C486.049 217.784 485.017 218.211 483.94 218.211Z" fill="#E6E6E6"/>
<path d="M311.183 227.043C308.562 227.043 306 226.266 303.821 224.81C301.641 223.354 299.943 221.284 298.94 218.863C297.937 216.441 297.674 213.777 298.186 211.206C298.697 208.636 299.959 206.275 301.812 204.421C303.666 202.568 306.027 201.306 308.597 200.795C311.168 200.283 313.832 200.546 316.254 201.549C318.675 202.552 320.745 204.25 322.201 206.429C323.657 208.609 324.434 211.171 324.434 213.792C324.43 217.305 323.033 220.673 320.548 223.157C318.064 225.642 314.696 227.039 311.183 227.043ZM311.183 202.54C308.957 202.54 306.782 203.2 304.932 204.436C303.081 205.673 301.639 207.43 300.788 209.486C299.936 211.542 299.713 213.804 300.147 215.987C300.582 218.169 301.653 220.174 303.227 221.748C304.8 223.321 306.805 224.393 308.988 224.827C311.17 225.261 313.432 225.038 315.488 224.187C317.544 223.335 319.302 221.893 320.538 220.042C321.774 218.192 322.434 216.017 322.434 213.792C322.431 210.808 321.244 207.949 319.135 205.839C317.026 203.73 314.166 202.543 311.183 202.54Z" fill="#E6E6E6"/>
<path d="M388.677 263.614H346.18C345.647 263.614 345.118 263.51 344.625 263.307C344.132 263.103 343.684 262.804 343.306 262.427C342.929 262.05 342.629 261.603 342.425 261.11C342.221 260.617 342.115 260.089 342.115 259.555C342.115 259.022 342.221 258.494 342.425 258.001C342.629 257.508 342.929 257.06 343.306 256.683C343.684 256.307 344.132 256.008 344.625 255.804C345.118 255.601 345.647 255.496 346.18 255.497H388.677C389.752 255.499 390.783 255.927 391.542 256.688C392.302 257.449 392.729 258.48 392.729 259.555C392.729 260.631 392.302 261.662 391.542 262.423C390.783 263.184 389.752 263.612 388.677 263.614Z" fill="#E6E6E6"/>
<path d="M483.94 280.211H346.18C345.647 280.211 345.12 280.106 344.627 279.902C344.135 279.698 343.688 279.399 343.311 279.023C342.934 278.646 342.635 278.198 342.431 277.706C342.227 277.214 342.122 276.686 342.122 276.153C342.122 275.62 342.227 275.092 342.431 274.6C342.635 274.108 342.934 273.66 343.311 273.283C343.688 272.907 344.135 272.608 344.627 272.404C345.12 272.2 345.647 272.095 346.18 272.095H483.94C485.017 272.095 486.049 272.522 486.81 273.283C487.571 274.044 487.999 275.077 487.999 276.153C487.999 277.229 487.571 278.262 486.81 279.023C486.049 279.784 485.017 280.211 483.94 280.211Z" fill="#E6E6E6"/>
<path d="M311.182 280.043C308.561 280.043 305.999 279.266 303.82 277.81C301.641 276.354 299.942 274.284 298.939 271.863C297.936 269.441 297.673 266.777 298.185 264.206C298.696 261.635 299.958 259.274 301.811 257.421C303.664 255.567 306.026 254.305 308.596 253.794C311.167 253.282 313.832 253.545 316.253 254.548C318.675 255.551 320.744 257.249 322.201 259.429C323.657 261.608 324.434 264.17 324.434 266.791C324.43 270.304 323.033 273.673 320.548 276.157C318.064 278.642 314.696 280.039 311.182 280.043ZM311.182 255.539C308.957 255.539 306.781 256.199 304.931 257.435C303.081 258.672 301.638 260.429 300.787 262.485C299.935 264.541 299.712 266.803 300.146 268.986C300.58 271.169 301.652 273.174 303.225 274.747C304.799 276.321 306.804 277.393 308.987 277.827C311.169 278.261 313.432 278.038 315.488 277.187C317.544 276.335 319.301 274.893 320.538 273.042C321.774 271.192 322.434 269.017 322.434 266.791C322.431 263.808 321.244 260.948 319.135 258.839C317.026 256.729 314.166 255.543 311.182 255.539Z" fill="#E6E6E6"/>
<path d="M275.751 97.8041H266.741L270.159 94.3101C270.316 94.1499 270.403 93.9339 270.4 93.7098C270.398 93.4857 270.306 93.2717 270.146 93.115C270.067 93.0374 269.973 92.9762 269.87 92.9348C269.767 92.8935 269.657 92.8728 269.546 92.8741C269.322 92.8766 269.108 92.968 268.951 93.1282L264.128 98.0577C263.974 98.2156 263.887 98.4277 263.887 98.6486C263.887 98.8696 263.974 99.0817 264.128 99.2396L268.951 104.17C269.108 104.33 269.322 104.421 269.546 104.424C269.77 104.426 269.986 104.339 270.146 104.183C270.306 104.026 270.398 103.812 270.4 103.588C270.403 103.364 270.316 103.148 270.159 102.988L266.742 99.4944H275.751C275.975 99.4937 276.189 99.4043 276.347 99.2459C276.505 99.0874 276.593 98.8729 276.593 98.6493C276.593 98.4256 276.505 98.2111 276.347 98.0526C276.189 97.8942 275.975 97.8049 275.751 97.8041Z" fill="#3F3D56"/>
<path d="M183.893 612.928L193.794 612.927L198.504 574.737L183.891 574.738L183.893 612.928Z" fill="#A0616A"/>
<path d="M183.544 623.257L213.991 623.256V622.871C213.991 619.728 212.742 616.714 210.52 614.491C208.297 612.269 205.283 611.02 202.14 611.02L196.578 606.801L186.201 611.021L183.543 611.021L183.544 623.257Z" fill="#2F2E41"/>
<path d="M138.893 612.928L148.794 612.927L153.504 574.737L138.891 574.738L138.893 612.928Z" fill="#A0616A"/>
<path d="M138.544 623.257L168.991 623.256V622.871C168.991 619.728 167.742 616.714 165.52 614.491C163.297 612.269 160.283 611.02 157.14 611.02L151.578 606.801L141.201 611.021L138.543 611.021L138.544 623.257Z" fill="#2F2E41"/>
<path d="M207.964 367.737C207.964 367.737 223.965 387.583 220.863 392.728C217.761 397.874 212.761 396.092 217.761 401.483C222.761 406.874 224.764 406.937 221.262 410.906C217.761 414.874 214.719 501.614 214.719 501.614L198.76 591.874L181.197 593.457C181.197 593.457 177.921 582.425 177.841 578.15C177.761 573.874 177.761 577.599 177.761 568.737C177.761 559.874 180.921 566.74 177.841 558.307C174.761 549.874 170.921 525.032 177.841 512.953C184.761 500.874 179.322 511.472 179.322 511.472L173.961 429.614L163.76 513.874C163.76 513.874 163.76 542.874 158.76 563.874L157.934 593.457L136.383 592.633C136.383 592.633 130.76 583.874 132.76 573.874C134.76 563.874 126.76 558.874 126.76 553.874C126.76 548.874 127.182 501.047 127.182 501.047L131.855 401.483C131.855 401.483 127.76 378.874 136.76 369.874C145.76 360.874 207.964 367.737 207.964 367.737Z" fill="#2F2E41"/>
<path d="M160.28 190.742L181.28 191.742C181.118 197.872 184.466 203.655 191.322 209.091L202.76 220.874L205.76 246.874L202.76 344.874L219.76 384.874C196.916 393.802 170.214 397.762 132.76 387.874C128.536 383.369 133.933 357.112 136.389 337.507C136.389 337.507 141.703 329.339 136.905 323.435C132.108 317.531 138.76 280.874 138.76 280.874L140.76 239.874C139.623 226.605 130.205 216.615 140.669 208.377C148.416 204.003 155.11 197.983 160.28 190.742Z" fill="#005CFF"/>
<path d="M191.322 209.091L205.591 213.372L217.719 243.336L210.28 336.743C210.28 336.743 208.789 342.393 211.535 341.568C214.28 340.743 213.161 347.823 213.161 347.823L223.28 386.743L126.76 378.875L136.389 337.508C136.389 337.508 129.286 337.737 134.28 332.743C139.274 327.749 137.558 330.779 132.76 324.875C131.387 323.301 130.521 321.349 130.277 319.274C130.034 317.2 130.423 315.1 131.395 313.251L129.255 284.001L125.726 242.835C125.166 236.303 126.239 229.735 128.847 223.72C131.455 217.705 135.518 212.433 140.669 208.378C155.569 199.526 172.838 201.526 191.322 209.091Z" fill="#3F3D56"/>
<path d="M109.197 396.644C108.069 394.972 107.639 392.925 107.997 390.94C108.355 388.955 109.474 387.188 111.115 386.015C111.452 385.781 111.808 385.577 112.18 385.402L109.579 358.51L122.76 352.39L122.34 389.613C122.944 391.208 123.003 392.959 122.508 394.591C122.013 396.223 120.991 397.645 119.603 398.636C118.807 399.192 117.91 399.586 116.962 399.795C116.015 400.004 115.035 400.025 114.079 399.856C113.124 399.686 112.211 399.33 111.393 398.808C110.574 398.286 109.867 397.608 109.311 396.812C109.272 396.757 109.234 396.701 109.197 396.644Z" fill="#A0616A"/>
<path d="M99.7604 321.744L109.76 372.744L110.95 372.664L122.54 371.834L123.76 371.744L122.76 325.744C120.1 323.034 124.61 313.754 130.53 302.554C132.72 298.424 135.1 294.024 137.39 289.604C137.8 288.814 138.2 288.024 138.6 287.234C141.477 281.754 143.976 276.084 146.08 270.264L129.51 223.244L129.09 222.044C129.09 222.044 125.56 230.464 120.94 242.654C120.59 243.564 120.24 244.494 119.89 245.444C111.07 268.984 99.1804 304.244 99.7604 321.744Z" fill="#3F3D56"/>
<path d="M309.799 171.678C309.131 173.581 307.746 175.149 305.94 176.047C304.134 176.946 302.048 177.104 300.127 176.488C299.739 176.356 299.362 176.193 299 175.999L278.983 194.145L266.202 187.227L296.31 165.335C297.229 163.898 298.598 162.805 300.202 162.228C301.807 161.65 303.558 161.62 305.182 162.142C306.103 162.448 306.955 162.933 307.689 163.568C308.422 164.203 309.024 164.977 309.459 165.844C309.894 166.712 310.154 167.657 310.223 168.625C310.293 169.593 310.172 170.565 309.866 171.486C309.844 171.55 309.822 171.614 309.799 171.678Z" fill="#A0616A"/>
<path d="M157.871 259.993C157.871 259.993 187.583 252.644 215.118 242.912C215.845 242.658 216.56 242.399 217.275 242.139C232.938 236.508 247.607 230.144 255.351 223.974L290.293 185.496L289.518 184.595L281.921 175.798L281.126 174.872L244.832 203.143C244.252 206.805 234.564 208.733 222.428 210.624C221.748 210.735 221.031 211.15 220.351 210.939C208.93 207.392 196.032 213.251 186.404 217.572L157.871 259.993Z" fill="#3F3D56"/>
<path d="M171.728 187.546C185.599 187.546 196.844 176.301 196.844 162.431C196.844 148.56 185.599 137.315 171.728 137.315C157.858 137.315 146.613 148.56 146.613 162.431C146.613 176.301 157.858 187.546 171.728 187.546Z" fill="#A0616A"/>
<path d="M155.2 188.696C159.401 186.723 164.308 187.922 168.945 188.105C173.583 188.287 179.202 186.539 180.186 182.003C180.913 178.65 178.726 174.974 180.105 171.831C181.607 168.404 186.118 167.916 189.735 166.956C194.269 165.646 198.268 162.925 201.15 159.188C204.033 155.451 205.65 150.893 205.766 146.175C206.017 148.047 202.813 148.662 201.761 147.093C200.708 145.524 201.433 143.352 202.594 141.861C203.754 140.37 205.32 139.179 206.196 137.505C207.071 135.83 206.901 133.344 205.192 132.538C204.316 134.306 203.075 135.868 201.552 137.121C200.028 138.374 198.256 139.29 196.352 139.809C197.13 137.447 196.031 134.793 194.262 133.046C192.382 131.41 190.217 130.135 187.874 129.285C182.085 126.775 175.325 124.278 169.719 127.173C168.272 127.935 167.015 129.014 166.043 130.329C165.071 131.645 164.409 133.163 164.107 134.77C153.736 135.647 143.087 146.881 143.677 157.272C144.313 168.458 144.776 169.363 154.088 188.187" fill="#2F2E41"/>
<path d="M45.239 625.368L45.2455 625.072C45.3795 620.11 46.5924 615.237 48.7999 610.791C51.0074 606.345 54.1566 602.434 58.0285 599.328C60.2142 597.603 62.6084 596.16 65.1545 595.034L65.3974 594.926L65.4388 595.188C65.9319 598.321 66.7127 601.519 67.0765 602.938L69.515 593.423L69.7859 593.345C71.0284 592.98 72.3517 592.995 73.5852 593.39C74.8187 593.784 75.9059 594.538 76.7068 595.556C77.5425 596.574 78.0543 597.818 78.1762 599.13C78.2982 600.441 78.0247 601.759 77.391 602.913C76.8226 603.972 76.2639 605.077 75.7234 606.146C73.8666 609.817 71.9467 613.614 69.1489 616.564C67.0093 618.776 64.4025 620.482 61.5191 621.558C58.6357 622.633 55.5484 623.051 52.4828 622.781L45.239 625.368Z" fill="#F2F2F2"/>
<path d="M284.654 625.036L44.9043 625.343C44.5891 625.342 44.2871 625.216 44.0646 624.993C43.842 624.77 43.717 624.468 43.717 624.152C43.717 623.837 43.842 623.535 44.0646 623.312C44.2871 623.088 44.5891 622.963 44.9043 622.962L284.654 622.654C284.97 622.654 285.273 622.78 285.496 623.003C285.72 623.226 285.845 623.529 285.845 623.845C285.845 624.161 285.72 624.464 285.496 624.687C285.273 624.91 284.97 625.036 284.654 625.036Z" fill="#CACACA"/>
</g>
<defs>
<clipPath id="clip0_1195_71651">
<rect width="654.26" height="625.368" fill="white" transform="translate(0.5)"/>
</clipPath>
</defs>
</svg>
