<svg width="852" height="741" viewBox="0 0 852 741" fill="none" xmlns="http://www.w3.org/2000/svg">
<g clip-path="url(#clip0_1195_71544)">
<path d="M767.378 385.54C767.489 477.209 732.056 565.352 668.528 631.44C664.698 635.45 660.765 639.363 656.728 643.18C650.578 649.03 644.221 654.653 637.658 660.05C576.26 710.634 499.612 739.059 420.078 740.74C417.428 740.8 414.768 740.83 412.098 740.83C348.668 740.83 268.888 706.95 196.488 660.05C190.498 656.17 184.561 652.2 178.678 648.14C175.928 646.26 173.191 644.353 170.468 642.42C142.544 622.702 116.039 601.049 91.148 577.62C74.8509 562.325 59.5684 545.983 45.398 528.7C-10.232 460.08 -22.502 398.25 56.808 385.54C66.198 384.04 75.3113 382.436 84.148 380.73C96.9481 378.27 109.198 375.613 120.898 372.76C136.658 368.93 151.465 364.776 165.318 360.3C169.978 358.8 174.531 357.27 178.978 355.71C244.718 332.62 288.718 302.51 318.668 269.84C323.748 264.31 328.431 258.713 332.718 253.05C339.277 244.429 345.234 235.368 350.548 225.93C357.883 212.816 364.043 199.079 368.958 184.88L369.228 184.1C393.058 115.36 385.808 51.5996 412.098 30.2596C524.478 -60.9704 664.388 68.9496 730.058 222.16C733.368 229.88 736.481 237.646 739.398 245.46C740.708 248.95 741.971 252.446 743.188 255.95C746.388 265.08 749.291 274.233 751.898 283.41C752.898 286.91 753.851 290.406 754.758 293.9C755.728 297.67 756.658 301.43 757.518 305.19C763.908 332.72 767.378 359.87 767.378 385.54Z" fill="#F2F2F2"/>
<path d="M420.078 740.74C417.428 740.8 414.768 740.83 412.098 740.83C348.668 740.83 268.888 706.95 196.488 660.05C190.498 656.17 184.561 652.2 178.678 648.14L183.838 616.74L340.048 596L418.448 655.95L420.078 740.74Z" fill="#2F2E41"/>
<path d="M427.598 180.05H405.338C404.649 180.05 403.987 180.324 403.5 180.812C403.012 181.299 402.738 181.96 402.738 182.65V204.92C402.738 205.261 402.806 205.598 402.937 205.913C403.068 206.227 403.259 206.513 403.501 206.754C403.742 206.994 404.029 207.185 404.344 207.315C404.659 207.444 404.997 207.511 405.338 207.51H427.598C428.286 207.51 428.946 207.238 429.433 206.752C429.921 206.267 430.196 205.608 430.198 204.92V182.65C430.196 181.961 429.921 181.301 429.434 180.813C428.947 180.326 428.287 180.052 427.598 180.05Z" fill="white"/>
<path d="M427.598 218H405.338C404.649 218 403.987 218.274 403.5 218.762C403.012 219.249 402.738 219.911 402.738 220.6V242.87C402.738 243.211 402.806 243.548 402.937 243.863C403.068 244.178 403.259 244.464 403.501 244.704C403.742 244.945 404.029 245.135 404.344 245.265C404.659 245.395 404.997 245.461 405.338 245.46H427.598C428.286 245.46 428.946 245.188 429.433 244.702C429.921 244.217 430.196 243.558 430.198 242.87V220.6C430.196 219.911 429.921 219.251 429.434 218.764C428.947 218.277 428.287 218.002 427.598 218Z" fill="#E6E6E6"/>
<path d="M427.598 255.949H405.338C404.649 255.95 403.987 256.224 403.5 256.711C403.012 257.199 402.738 257.86 402.738 258.549V280.809C402.737 281.151 402.804 281.489 402.935 281.805C403.065 282.121 403.257 282.408 403.498 282.649C403.74 282.891 404.026 283.082 404.342 283.213C404.658 283.343 404.996 283.41 405.338 283.409H427.598C428.287 283.409 428.949 283.135 429.436 282.647C429.924 282.16 430.198 281.499 430.198 280.809V258.549C430.196 257.86 429.921 257.2 429.434 256.713C428.947 256.226 428.287 255.951 427.598 255.949Z" fill="#E6E6E6"/>
<path d="M430.158 296.04C430.047 295.441 429.731 294.899 429.263 294.509C428.796 294.118 428.207 293.902 427.598 293.899H405.338C404.649 293.9 403.987 294.174 403.5 294.661C403.012 295.149 402.738 295.81 402.738 296.5V318.76C402.737 319.101 402.804 319.44 402.935 319.755C403.065 320.071 403.256 320.358 403.498 320.599C403.74 320.841 404.026 321.033 404.342 321.163C404.658 321.293 404.996 321.36 405.338 321.36H427.598C428.287 321.359 428.949 321.085 429.436 320.598C429.924 320.11 430.198 319.449 430.198 318.76V296.5C430.2 296.345 430.187 296.191 430.158 296.04Z" fill="#E6E6E6"/>
<path d="M428.608 332.05C428.288 331.917 427.945 331.849 427.598 331.85H405.338C404.996 331.849 404.658 331.916 404.342 332.046C404.027 332.177 403.74 332.368 403.498 332.61C403.257 332.851 403.065 333.138 402.935 333.454C402.804 333.77 402.738 334.108 402.738 334.45V356.71C402.737 357.051 402.803 357.39 402.933 357.706C403.063 358.023 403.254 358.31 403.496 358.552C403.738 358.793 404.025 358.985 404.341 359.115C404.657 359.245 404.996 359.311 405.338 359.31H427.598C428.288 359.309 428.949 359.035 429.436 358.548C429.924 358.06 430.198 357.399 430.198 356.71V334.45C430.197 333.938 430.046 333.438 429.763 333.011C429.48 332.585 429.079 332.25 428.608 332.05Z" fill="#E6E6E6"/>
<path d="M474.358 180.05H452.098C451.409 180.05 450.747 180.324 450.26 180.812C449.772 181.299 449.498 181.96 449.498 182.65V204.92C449.498 205.261 449.566 205.598 449.697 205.913C449.828 206.227 450.019 206.513 450.261 206.754C450.502 206.994 450.789 207.185 451.104 207.315C451.419 207.444 451.757 207.511 452.098 207.51H474.358C475.046 207.51 475.706 207.238 476.193 206.752C476.681 206.267 476.956 205.608 476.958 204.92V182.65C476.956 181.961 476.681 181.301 476.194 180.813C475.707 180.326 475.047 180.052 474.358 180.05Z" fill="#E6E6E6"/>
<path d="M474.358 218H452.098C451.409 218 450.747 218.274 450.26 218.762C449.772 219.249 449.498 219.911 449.498 220.6V242.87C449.498 243.211 449.566 243.548 449.697 243.863C449.828 244.178 450.019 244.464 450.261 244.704C450.502 244.945 450.789 245.135 451.104 245.265C451.419 245.395 451.757 245.461 452.098 245.46H474.358C475.046 245.46 475.706 245.188 476.193 244.702C476.681 244.217 476.956 243.558 476.958 242.87V220.6C476.956 219.911 476.681 219.251 476.194 218.764C475.707 218.277 475.047 218.002 474.358 218Z" fill="#005CFF"/>
<path d="M474.358 255.949H452.098C451.409 255.95 450.747 256.224 450.26 256.711C449.772 257.199 449.498 257.86 449.498 258.549V280.809C449.497 281.151 449.564 281.489 449.695 281.805C449.825 282.121 450.017 282.408 450.258 282.649C450.5 282.891 450.787 283.082 451.102 283.213C451.418 283.343 451.756 283.41 452.098 283.409H474.358C475.047 283.409 475.709 283.135 476.196 282.647C476.684 282.16 476.958 281.499 476.958 280.809V258.549C476.956 257.86 476.681 257.2 476.194 256.713C475.707 256.226 475.047 255.951 474.358 255.949Z" fill="#005CFF"/>
<path d="M474.358 293.899H452.098C451.553 293.9 451.022 294.072 450.58 294.392C450.139 294.711 449.809 295.162 449.638 295.679C449.546 295.943 449.498 296.22 449.498 296.499V318.759C449.497 319.101 449.564 319.439 449.695 319.755C449.825 320.071 450.016 320.358 450.258 320.599C450.5 320.841 450.786 321.033 451.102 321.163C451.418 321.293 451.756 321.36 452.098 321.359H474.358C475.047 321.359 475.709 321.085 476.196 320.598C476.684 320.11 476.958 319.449 476.958 318.759V296.499C476.956 295.811 476.681 295.15 476.194 294.663C475.707 294.176 475.047 293.901 474.358 293.899Z" fill="#005CFF"/>
<path d="M474.358 331.85H452.098C451.756 331.849 451.418 331.916 451.102 332.046C450.787 332.177 450.5 332.368 450.258 332.61C450.017 332.851 449.825 333.138 449.695 333.454C449.564 333.77 449.497 334.108 449.498 334.45V356.71C449.497 357.051 449.564 357.39 449.695 357.705C449.825 358.021 450.017 358.308 450.258 358.55C450.5 358.791 450.787 358.983 451.102 359.113C451.418 359.244 451.756 359.31 452.098 359.31H474.358C475.047 359.309 475.709 359.035 476.196 358.548C476.684 358.06 476.958 357.399 476.958 356.71V334.45C476.958 333.76 476.684 333.099 476.196 332.611C475.709 332.124 475.047 331.85 474.358 331.85Z" fill="#E6E6E6"/>
<path d="M521.118 180.05H498.858C498.169 180.05 497.507 180.324 497.02 180.812C496.532 181.299 496.258 181.96 496.258 182.65V204.92C496.258 205.261 496.326 205.598 496.457 205.913C496.588 206.227 496.779 206.513 497.021 206.754C497.262 206.994 497.549 207.185 497.864 207.315C498.179 207.444 498.517 207.511 498.858 207.51H521.118C521.806 207.51 522.466 207.238 522.953 206.752C523.441 206.267 523.716 205.608 523.718 204.92V182.65C523.716 181.961 523.441 181.301 522.954 180.813C522.467 180.326 521.807 180.052 521.118 180.05Z" fill="#005CFF"/>
<path d="M521.118 218H498.858C498.169 218 497.507 218.274 497.02 218.762C496.532 219.249 496.258 219.911 496.258 220.6V242.87C496.258 243.211 496.326 243.548 496.457 243.863C496.588 244.178 496.779 244.464 497.021 244.704C497.262 244.945 497.549 245.135 497.864 245.265C498.179 245.395 498.517 245.461 498.858 245.46H521.118C521.806 245.46 522.466 245.188 522.953 244.702C523.441 244.217 523.716 243.558 523.718 242.87V220.6C523.716 219.911 523.441 219.251 522.954 218.764C522.467 218.277 521.807 218.002 521.118 218Z" fill="#005CFF"/>
<path d="M521.118 255.949H498.858C498.169 255.95 497.507 256.224 497.02 256.711C496.532 257.199 496.258 257.86 496.258 258.549V280.809C496.257 281.151 496.324 281.489 496.455 281.805C496.585 282.121 496.777 282.408 497.018 282.649C497.26 282.891 497.547 283.082 497.862 283.213C498.178 283.343 498.516 283.41 498.858 283.409H521.118C521.807 283.409 522.469 283.135 522.956 282.647C523.444 282.16 523.718 281.499 523.718 280.809V258.549C523.716 257.86 523.441 257.2 522.954 256.713C522.467 256.226 521.807 255.951 521.118 255.949Z" fill="#E6E6E6"/>
<path d="M521.118 293.899H498.858C498.169 293.9 497.507 294.174 497.02 294.661C496.533 295.149 496.258 295.81 496.258 296.5V318.76C496.257 319.101 496.324 319.44 496.455 319.755C496.585 320.071 496.777 320.358 497.018 320.599C497.26 320.841 497.547 321.033 497.862 321.163C498.178 321.293 498.516 321.36 498.858 321.36H521.118C521.807 321.359 522.469 321.085 522.956 320.598C523.444 320.11 523.718 319.449 523.718 318.76V296.5C523.716 295.811 523.441 295.15 522.954 294.663C522.467 294.176 521.807 293.901 521.118 293.899Z" fill="#005CFF"/>
<path d="M521.118 331.85H498.858C498.516 331.849 498.178 331.916 497.862 332.046C497.547 332.177 497.26 332.368 497.018 332.61C496.777 332.851 496.585 333.138 496.455 333.454C496.324 333.77 496.257 334.108 496.258 334.45V356.71C496.257 357.051 496.324 357.39 496.455 357.705C496.585 358.021 496.777 358.308 497.018 358.55C497.26 358.791 497.547 358.983 497.862 359.113C498.178 359.244 498.516 359.31 498.858 359.31H521.118C521.808 359.309 522.469 359.035 522.956 358.548C523.444 358.06 523.718 357.399 523.718 356.71V334.45C523.718 333.76 523.444 333.099 522.956 332.611C522.469 332.124 521.807 331.85 521.118 331.85Z" fill="#005CFF"/>
<path d="M567.878 180.05H545.618C544.929 180.05 544.267 180.324 543.78 180.812C543.292 181.299 543.018 181.96 543.018 182.65V204.92C543.018 205.261 543.086 205.598 543.217 205.913C543.348 206.227 543.539 206.513 543.781 206.754C544.022 206.994 544.309 207.185 544.624 207.315C544.939 207.444 545.277 207.511 545.618 207.51H567.878C568.566 207.51 569.226 207.238 569.713 206.752C570.201 206.267 570.476 205.608 570.478 204.92V182.65C570.476 181.961 570.201 181.301 569.714 180.813C569.227 180.326 568.567 180.052 567.878 180.05Z" fill="#005CFF"/>
<path d="M567.878 218H545.618C544.929 218 544.267 218.274 543.78 218.762C543.292 219.249 543.018 219.911 543.018 220.6V242.87C543.018 243.211 543.086 243.548 543.217 243.863C543.348 244.178 543.539 244.464 543.781 244.704C544.022 244.945 544.309 245.135 544.624 245.265C544.939 245.395 545.277 245.461 545.618 245.46H567.878C568.566 245.46 569.226 245.188 569.713 244.702C570.201 244.217 570.476 243.558 570.478 242.87V220.6C570.476 219.911 570.201 219.251 569.714 218.764C569.227 218.277 568.567 218.002 567.878 218Z" fill="white"/>
<path d="M567.878 255.949H545.618C544.929 255.95 544.267 256.224 543.78 256.711C543.292 257.199 543.018 257.86 543.018 258.549V280.809C543.017 281.151 543.084 281.489 543.215 281.805C543.345 282.121 543.536 282.408 543.778 282.649C544.02 282.891 544.306 283.082 544.622 283.213C544.938 283.343 545.276 283.41 545.618 283.409H567.878C568.567 283.409 569.229 283.135 569.716 282.647C570.204 282.16 570.478 281.499 570.478 280.809V258.549C570.476 257.86 570.201 257.2 569.714 256.713C569.227 256.226 568.567 255.951 567.878 255.949Z" fill="white"/>
<path d="M567.878 293.899H545.618C544.929 293.9 544.267 294.174 543.78 294.661C543.292 295.149 543.018 295.81 543.018 296.5V318.76C543.017 319.101 543.084 319.44 543.215 319.755C543.345 320.071 543.536 320.358 543.778 320.6C544.02 320.841 544.306 321.033 544.622 321.163C544.938 321.293 545.276 321.36 545.618 321.36H567.878C568.567 321.359 569.229 321.085 569.716 320.598C570.204 320.11 570.478 319.449 570.478 318.76V296.5C570.476 295.811 570.201 295.15 569.714 294.663C569.227 294.176 568.567 293.901 567.878 293.899Z" fill="#E6E6E6"/>
<path d="M567.878 331.85H545.618C545.276 331.849 544.938 331.916 544.622 332.046C544.306 332.177 544.02 332.368 543.778 332.61C543.536 332.851 543.345 333.138 543.215 333.454C543.084 333.77 543.017 334.108 543.018 334.45V356.71C543.017 357.051 543.084 357.39 543.215 357.705C543.345 358.021 543.536 358.308 543.778 358.55C544.02 358.791 544.306 358.983 544.622 359.113C544.938 359.244 545.276 359.31 545.618 359.31H567.878C568.567 359.309 569.229 359.035 569.716 358.548C570.204 358.06 570.478 357.399 570.478 356.71V334.45C570.478 333.76 570.204 333.099 569.716 332.611C569.229 332.124 568.567 331.85 567.878 331.85Z" fill="#005CFF"/>
<path d="M614.638 180.05H592.368C591.68 180.052 591.021 180.327 590.536 180.815C590.05 181.302 589.778 181.962 589.778 182.65V204.92C589.778 205.607 590.051 206.265 590.537 206.751C591.022 207.237 591.681 207.51 592.368 207.51H614.638C615.326 207.51 615.986 207.238 616.473 206.752C616.961 206.267 617.236 205.608 617.238 204.92V182.65C617.236 181.961 616.961 181.301 616.474 180.813C615.987 180.326 615.327 180.052 614.638 180.05Z" fill="white"/>
<path d="M614.638 218H592.368C591.68 218.002 591.021 218.277 590.536 218.765C590.05 219.252 589.778 219.912 589.778 220.6V242.87C589.778 243.557 590.051 244.216 590.537 244.701C591.022 245.187 591.681 245.46 592.368 245.46H614.638C615.326 245.46 615.986 245.188 616.473 244.702C616.961 244.217 617.236 243.558 617.238 242.87V220.6C617.236 219.911 616.961 219.251 616.474 218.764C615.987 218.277 615.327 218.002 614.638 218Z" fill="white"/>
<path d="M614.638 255.949H592.368C591.68 255.952 591.021 256.227 590.536 256.714C590.05 257.201 589.778 257.861 589.778 258.549V280.809C589.777 281.15 589.843 281.488 589.973 281.803C590.103 282.118 590.293 282.405 590.534 282.646C590.774 282.888 591.06 283.079 591.375 283.21C591.69 283.341 592.027 283.409 592.368 283.409H614.638C615.327 283.409 615.989 283.135 616.476 282.647C616.964 282.16 617.238 281.499 617.238 280.809V258.549C617.236 257.86 616.961 257.2 616.474 256.713C615.987 256.226 615.327 255.951 614.638 255.949Z" fill="white"/>
<path d="M614.638 293.899H592.368C591.68 293.902 591.021 294.177 590.536 294.664C590.05 295.152 589.778 295.812 589.778 296.5V318.76C589.777 319.1 589.843 319.438 589.973 319.753C590.103 320.069 590.293 320.355 590.534 320.597C590.774 320.838 591.06 321.03 591.375 321.161C591.69 321.292 592.027 321.359 592.368 321.36H614.638C615.327 321.359 615.989 321.085 616.476 320.598C616.964 320.11 617.238 319.449 617.238 318.76V296.5C617.236 295.811 616.961 295.15 616.474 294.663C615.987 294.176 615.327 293.901 614.638 293.899Z" fill="#005CFF"/>
<path d="M614.638 331.85H592.368C592.027 331.85 591.69 331.918 591.375 332.048C591.06 332.179 590.774 332.371 590.534 332.613C590.293 332.854 590.103 333.141 589.973 333.456C589.843 333.771 589.777 334.109 589.778 334.45V356.71C589.777 357.05 589.843 357.388 589.973 357.703C590.103 358.019 590.293 358.305 590.534 358.547C590.774 358.788 591.06 358.98 591.375 359.111C591.69 359.242 592.027 359.309 592.368 359.31H614.638C615.327 359.309 615.989 359.035 616.476 358.548C616.964 358.06 617.238 357.399 617.238 356.71V334.45C617.238 333.76 616.964 333.099 616.476 332.611C615.989 332.124 615.327 331.85 614.638 331.85Z" fill="#E6E6E6"/>
<path d="M661.398 180.05H639.128C638.44 180.052 637.781 180.327 637.296 180.815C636.81 181.302 636.538 181.962 636.538 182.65V204.92C636.538 205.607 636.811 206.265 637.297 206.751C637.782 207.237 638.441 207.51 639.128 207.51H661.398C662.086 207.51 662.746 207.237 663.233 206.752C663.721 206.266 663.996 205.608 663.998 204.92V182.65C663.996 181.961 663.721 181.301 663.234 180.813C662.747 180.326 662.087 180.052 661.398 180.05Z" fill="white"/>
<path d="M661.398 218H639.128C638.44 218.002 637.781 218.277 637.296 218.765C636.81 219.252 636.538 219.912 636.538 220.6V242.87C636.538 243.557 636.811 244.216 637.297 244.701C637.782 245.187 638.441 245.46 639.128 245.46H661.398C662.086 245.46 662.746 245.188 663.233 244.702C663.721 244.217 663.996 243.558 663.998 242.87V220.6C663.996 219.911 663.721 219.251 663.234 218.764C662.747 218.277 662.087 218.002 661.398 218Z" fill="white"/>
<path d="M661.398 255.949H639.128C638.44 255.952 637.781 256.227 637.296 256.714C636.81 257.201 636.538 257.861 636.538 258.549V280.809C636.537 281.15 636.603 281.488 636.733 281.803C636.863 282.118 637.053 282.405 637.294 282.646C637.534 282.888 637.82 283.079 638.135 283.21C638.45 283.341 638.787 283.409 639.128 283.409H661.398C662.087 283.409 662.749 283.135 663.236 282.647C663.724 282.16 663.998 281.499 663.998 280.809V258.549C663.996 257.86 663.721 257.2 663.234 256.713C662.747 256.226 662.087 255.951 661.398 255.949Z" fill="#005CFF"/>
<path d="M661.398 293.899H639.128C638.44 293.902 637.781 294.177 637.296 294.664C636.81 295.152 636.538 295.812 636.538 296.5V318.76C636.537 319.1 636.603 319.438 636.733 319.753C636.863 320.069 637.053 320.355 637.294 320.597C637.534 320.838 637.82 321.03 638.135 321.161C638.45 321.292 638.787 321.359 639.128 321.36H661.398C662.087 321.359 662.749 321.085 663.236 320.598C663.724 320.11 663.998 319.449 663.998 318.76V296.5C663.996 295.811 663.721 295.15 663.234 294.663C662.747 294.176 662.087 293.901 661.398 293.899Z" fill="#E6E6E6"/>
<path d="M661.398 331.85H639.128C638.787 331.85 638.45 331.918 638.135 332.048C637.82 332.179 637.534 332.371 637.294 332.613C637.053 332.854 636.863 333.141 636.733 333.456C636.603 333.771 636.537 334.109 636.538 334.45V356.71C636.537 357.05 636.603 357.388 636.733 357.703C636.863 358.019 637.053 358.305 637.294 358.547C637.534 358.788 637.82 358.98 638.135 359.111C638.45 359.242 638.787 359.309 639.128 359.31H661.398C662.087 359.309 662.749 359.035 663.236 358.548C663.724 358.06 663.998 357.399 663.998 356.71V334.45C663.998 333.76 663.724 333.099 663.236 332.611C662.749 332.124 662.087 331.85 661.398 331.85Z" fill="white"/>
<path d="M708.158 180.05H685.888C685.2 180.052 684.541 180.327 684.056 180.815C683.57 181.302 683.298 181.962 683.298 182.65V204.92C683.298 205.607 683.571 206.265 684.057 206.751C684.542 207.237 685.201 207.51 685.888 207.51H708.158C708.846 207.51 709.506 207.237 709.993 206.752C710.481 206.266 710.756 205.608 710.758 204.92V182.65C710.756 181.961 710.481 181.301 709.994 180.813C709.507 180.326 708.847 180.052 708.158 180.05Z" fill="#005CFF"/>
<path d="M708.158 218H685.888C685.2 218.002 684.541 218.277 684.056 218.765C683.57 219.252 683.298 219.912 683.298 220.6V242.87C683.298 243.557 683.571 244.216 684.057 244.701C684.542 245.187 685.201 245.46 685.888 245.46H708.158C708.846 245.46 709.506 245.188 709.993 244.702C710.481 244.217 710.756 243.558 710.758 242.87V220.6C710.756 219.911 710.481 219.251 709.994 218.764C709.507 218.277 708.847 218.002 708.158 218Z" fill="#005CFF"/>
<path d="M708.158 255.949H685.888C685.2 255.952 684.541 256.227 684.056 256.714C683.57 257.201 683.298 257.861 683.298 258.549V280.809C683.297 281.15 683.363 281.488 683.493 281.803C683.623 282.118 683.813 282.405 684.054 282.646C684.294 282.888 684.58 283.079 684.895 283.21C685.21 283.341 685.547 283.409 685.888 283.409H708.158C708.847 283.409 709.509 283.135 709.996 282.647C710.484 282.16 710.758 281.499 710.758 280.809V258.549C710.756 257.86 710.481 257.2 709.994 256.713C709.507 256.226 708.847 255.951 708.158 255.949Z" fill="#E6E6E6"/>
<path d="M708.158 293.899H685.888C685.2 293.902 684.541 294.177 684.056 294.664C683.57 295.152 683.298 295.812 683.298 296.5V318.76C683.297 319.1 683.363 319.438 683.493 319.753C683.623 320.069 683.813 320.355 684.054 320.597C684.294 320.838 684.58 321.03 684.895 321.161C685.21 321.292 685.547 321.359 685.888 321.36H708.158C708.847 321.359 709.509 321.085 709.996 320.598C710.484 320.11 710.758 319.449 710.758 318.76V296.5C710.756 295.811 710.481 295.15 709.994 294.663C709.507 294.176 708.847 293.901 708.158 293.899Z" fill="white"/>
<path d="M708.158 331.85H685.888C685.547 331.85 685.21 331.918 684.895 332.048C684.58 332.179 684.294 332.371 684.054 332.613C683.813 332.854 683.623 333.141 683.493 333.456C683.363 333.771 683.297 334.109 683.298 334.45V356.71C683.297 357.05 683.363 357.388 683.493 357.703C683.623 358.019 683.813 358.305 684.054 358.547C684.294 358.788 684.58 358.98 684.895 359.111C685.21 359.242 685.547 359.309 685.888 359.31H708.158C708.847 359.309 709.509 359.035 709.996 358.548C710.484 358.06 710.758 357.399 710.758 356.71V334.45C710.758 333.76 710.484 333.099 709.996 332.611C709.509 332.124 708.847 331.85 708.158 331.85Z" fill="#005CFF"/>
<path d="M754.918 180.05H732.648C731.96 180.052 731.301 180.327 730.816 180.815C730.33 181.302 730.058 181.962 730.058 182.65V204.92C730.058 205.607 730.331 206.265 730.817 206.751C731.302 207.237 731.961 207.51 732.648 207.51H754.918C755.606 207.51 756.266 207.237 756.753 206.752C757.241 206.266 757.516 205.608 757.518 204.92V182.65C757.516 181.961 757.241 181.301 756.754 180.813C756.267 180.326 755.607 180.052 754.918 180.05Z" fill="#005CFF"/>
<path d="M754.918 218H732.648C731.96 218.002 731.301 218.277 730.816 218.765C730.33 219.252 730.058 219.912 730.058 220.6V242.87C730.058 243.557 730.331 244.216 730.817 244.701C731.302 245.187 731.961 245.46 732.648 245.46H754.918C755.606 245.46 756.266 245.188 756.753 244.702C757.241 244.217 757.516 243.558 757.518 242.87V220.6C757.516 219.911 757.241 219.251 756.754 218.764C756.267 218.277 755.607 218.002 754.918 218Z" fill="#005CFF"/>
<path d="M754.918 255.949H732.648C731.96 255.952 731.301 256.227 730.816 256.714C730.33 257.201 730.058 257.861 730.058 258.549V280.809C730.057 281.15 730.123 281.488 730.253 281.803C730.383 282.118 730.573 282.405 730.814 282.646C731.054 282.888 731.34 283.079 731.655 283.21C731.97 283.341 732.307 283.409 732.648 283.409H754.918C755.607 283.409 756.269 283.135 756.756 282.647C757.244 282.16 757.518 281.499 757.518 280.809V258.549C757.516 257.86 757.241 257.2 756.754 256.713C756.267 256.226 755.607 255.951 754.918 255.949Z" fill="#E6E6E6"/>
<path d="M754.918 293.899H732.648C731.96 293.902 731.301 294.177 730.816 294.664C730.33 295.152 730.058 295.812 730.058 296.5V318.76C730.057 319.1 730.123 319.438 730.253 319.753C730.383 320.069 730.573 320.355 730.814 320.597C731.054 320.838 731.34 321.03 731.655 321.161C731.97 321.292 732.307 321.359 732.648 321.36H754.918C755.607 321.359 756.269 321.085 756.756 320.598C757.244 320.11 757.518 319.449 757.518 318.76V296.5C757.516 295.811 757.241 295.15 756.754 294.663C756.267 294.176 755.607 293.901 754.918 293.899Z" fill="#005CFF"/>
<path d="M754.918 331.85H732.648C732.307 331.85 731.97 331.918 731.655 332.048C731.34 332.179 731.054 332.371 730.814 332.613C730.573 332.854 730.383 333.141 730.253 333.456C730.123 333.771 730.057 334.109 730.058 334.45V356.71C730.057 357.05 730.123 357.388 730.253 357.703C730.383 358.019 730.573 358.305 730.814 358.547C731.054 358.788 731.34 358.98 731.655 359.111C731.97 359.242 732.307 359.309 732.648 359.31H754.918C755.607 359.309 756.269 359.035 756.756 358.548C757.244 358.06 757.518 357.399 757.518 356.71V334.45C757.518 333.76 757.244 333.099 756.756 332.611C756.269 332.124 755.607 331.85 754.918 331.85Z" fill="#005CFF"/>
<path d="M801.678 180.05H779.408C778.72 180.052 778.061 180.327 777.576 180.815C777.09 181.302 776.818 181.962 776.818 182.65V204.92C776.818 205.607 777.091 206.265 777.577 206.751C778.062 207.237 778.721 207.51 779.408 207.51H801.678C802.366 207.51 803.026 207.237 803.513 206.752C804.001 206.266 804.276 205.608 804.278 204.92V182.65C804.276 181.961 804.001 181.301 803.514 180.813C803.027 180.326 802.367 180.052 801.678 180.05Z" fill="#E6E6E6"/>
<path d="M801.678 218H779.408C778.72 218.002 778.061 218.277 777.576 218.765C777.09 219.252 776.818 219.912 776.818 220.6V242.87C776.818 243.557 777.091 244.216 777.577 244.701C778.062 245.187 778.721 245.46 779.408 245.46H801.678C802.366 245.46 803.026 245.188 803.513 244.702C804.001 244.217 804.276 243.558 804.278 242.87V220.6C804.276 219.911 804.001 219.251 803.514 218.764C803.027 218.277 802.367 218.002 801.678 218Z" fill="#005CFF"/>
<path d="M801.678 255.949H779.408C778.72 255.952 778.061 256.227 777.576 256.714C777.09 257.201 776.818 257.861 776.818 258.549V280.809C776.817 281.15 776.883 281.488 777.013 281.803C777.143 282.118 777.333 282.405 777.574 282.646C777.814 282.888 778.1 283.079 778.415 283.21C778.73 283.341 779.067 283.409 779.408 283.409H801.678C802.367 283.409 803.029 283.135 803.516 282.647C804.004 282.16 804.278 281.499 804.278 280.809V258.549C804.276 257.86 804.001 257.2 803.514 256.713C803.027 256.226 802.367 255.951 801.678 255.949Z" fill="#005CFF"/>
<path d="M801.678 293.899H779.408C778.72 293.902 778.061 294.177 777.576 294.664C777.09 295.152 776.818 295.812 776.818 296.5V318.76C776.817 319.1 776.883 319.438 777.013 319.753C777.143 320.069 777.333 320.355 777.574 320.597C777.814 320.838 778.1 321.03 778.415 321.161C778.73 321.292 779.067 321.359 779.408 321.36H801.678C802.367 321.359 803.029 321.085 803.516 320.598C804.004 320.11 804.278 319.449 804.278 318.76V296.5C804.276 295.811 804.001 295.15 803.514 294.663C803.027 294.176 802.367 293.901 801.678 293.899Z" fill="#005CFF"/>
<path d="M801.678 331.85H779.408C779.067 331.85 778.73 331.918 778.415 332.048C778.1 332.179 777.814 332.371 777.574 332.613C777.333 332.854 777.143 333.141 777.013 333.456C776.883 333.771 776.817 334.109 776.818 334.45V356.71C776.817 357.05 776.883 357.388 777.013 357.703C777.143 358.019 777.333 358.305 777.574 358.547C777.814 358.788 778.1 358.98 778.415 359.111C778.73 359.242 779.067 359.309 779.408 359.31H801.678C802.367 359.309 803.029 359.035 803.516 358.548C804.004 358.06 804.278 357.399 804.278 356.71V334.45C804.278 333.76 804.004 333.099 803.516 332.611C803.029 332.124 802.367 331.85 801.678 331.85Z" fill="#E6E6E6"/>
<path d="M848.438 180.05H826.168C825.48 180.052 824.821 180.327 824.336 180.815C823.85 181.302 823.578 181.962 823.578 182.65V204.92C823.578 205.607 823.851 206.265 824.337 206.751C824.822 207.237 825.481 207.51 826.168 207.51H848.438C849.126 207.51 849.786 207.237 850.273 206.752C850.761 206.266 851.036 205.608 851.038 204.92V182.65C851.036 181.961 850.761 181.301 850.274 180.813C849.787 180.326 849.127 180.052 848.438 180.05Z" fill="#E6E6E6"/>
<path d="M848.438 218H826.168C825.48 218.002 824.821 218.277 824.336 218.765C823.85 219.252 823.578 219.912 823.578 220.6V242.87C823.578 243.557 823.851 244.216 824.337 244.701C824.822 245.187 825.481 245.46 826.168 245.46H848.438C849.126 245.46 849.786 245.188 850.273 244.702C850.761 244.217 851.036 243.558 851.038 242.87V220.6C851.036 219.911 850.761 219.251 850.274 218.764C849.787 218.277 849.127 218.002 848.438 218Z" fill="#E6E6E6"/>
<path d="M848.438 255.949H826.168C825.48 255.952 824.821 256.227 824.336 256.714C823.85 257.201 823.578 257.861 823.578 258.549V280.809C823.577 281.15 823.643 281.488 823.773 281.803C823.903 282.118 824.093 282.405 824.334 282.646C824.574 282.888 824.86 283.079 825.175 283.21C825.49 283.341 825.827 283.409 826.168 283.409H848.438C849.127 283.409 849.789 283.135 850.276 282.647C850.764 282.16 851.038 281.499 851.038 280.809V258.549C851.036 257.86 850.761 257.2 850.274 256.713C849.787 256.226 849.127 255.951 848.438 255.949Z" fill="#005CFF"/>
<path d="M848.438 293.899H826.168C825.48 293.902 824.821 294.177 824.336 294.664C823.85 295.152 823.578 295.812 823.578 296.5V318.76C823.577 319.1 823.643 319.438 823.773 319.753C823.903 320.069 824.093 320.355 824.334 320.597C824.574 320.838 824.86 321.03 825.175 321.161C825.49 321.292 825.827 321.359 826.168 321.36H848.438C849.127 321.359 849.789 321.085 850.276 320.598C850.764 320.11 851.038 319.449 851.038 318.76V296.5C851.036 295.811 850.761 295.15 850.274 294.663C849.787 294.176 849.127 293.901 848.438 293.899Z" fill="#E6E6E6"/>
<path d="M848.438 331.85H826.168C825.827 331.85 825.49 331.918 825.175 332.048C824.86 332.179 824.574 332.371 824.334 332.613C824.093 332.854 823.903 333.141 823.773 333.456C823.643 333.771 823.577 334.109 823.578 334.45V356.71C823.577 357.05 823.643 357.388 823.773 357.703C823.903 358.019 824.093 358.305 824.334 358.547C824.574 358.788 824.86 358.98 825.175 359.111C825.49 359.242 825.827 359.309 826.168 359.31H848.438C849.127 359.309 849.789 359.035 850.276 358.548C850.764 358.06 851.038 357.399 851.038 356.71V334.45C851.038 333.76 850.764 333.099 850.276 332.611C849.789 332.124 849.127 331.85 848.438 331.85Z" fill="#E6E6E6"/>
<path d="M336.595 660.051H335.975L336.505 659.981L336.595 660.051Z" fill="#2F2E41"/>
<path d="M283.314 245.055C321.048 245.055 351.636 214.466 351.636 176.733C351.636 139 321.048 108.411 283.314 108.411C245.581 108.411 214.993 139 214.993 176.733C214.993 214.466 245.581 245.055 283.314 245.055Z" fill="#FFB6B6"/>
<path d="M343.146 126.64C343.146 126.64 361.015 92.4791 321.702 89.3735C321.702 89.3735 288.187 58.9712 254.026 83.8155C254.026 83.8155 235.393 83.8155 225.204 104.901C225.204 104.901 210.549 99.3432 207.328 114.218C207.328 114.218 196.605 145.273 207.328 173.223C218.052 201.173 221.614 204.278 221.614 204.278C221.614 204.278 203.993 145.68 246.884 142.574C289.774 139.469 337.77 112.665 341.345 146.826C344.919 180.987 350.298 189.404 350.298 189.404C350.298 189.404 384.248 140.615 343.146 126.64Z" fill="#2F2E41"/>
<path d="M460.048 345.11L459.828 346.27L457.358 359.31L440.288 449.51L439.278 454.82L437.158 466.05L434.258 481.37L427.828 515.32L425.988 525.05L425.298 528.7L425.058 529.98L423.148 540.05L422.568 543.09L417.908 577.62L413.838 607.71L427.458 621.33L419.338 629.45L414.008 659.98L414.018 660.05H196.488C187.688 654.35 179.015 648.473 170.468 642.42L172.258 629.02C172.258 629.02 178.418 605.09 175.828 602.23C173.248 599.37 167.588 594.26 167.588 594.26L174.718 577.62L175.708 575.31L174.048 540.88L174.008 540.05L173.458 528.7L173.388 527.24L173.278 525.05L171.168 481.37L171.128 480.65L170.488 467.41L169.888 454.82L169.628 449.51L167.058 396.38L165.318 360.3L163.798 328.89L169.908 326.82L235.258 304.61L262.328 269.42L318.668 269.84L346.248 270.05L392.268 312.73L402.738 317.73L402.818 317.77L410.328 321.36L429.368 330.45L449.498 340.07L459.828 345L460.048 345.11Z" fill="#CACACA"/>
<path d="M269.609 557.55C265.48 559.15 261.051 559.825 256.634 559.527C252.216 559.23 247.917 557.967 244.04 555.829C240.163 553.69 236.803 550.728 234.194 547.15C231.586 543.572 229.794 539.466 228.945 535.12L122.386 520.003L159.429 478.101L254.94 498.881C262.334 497.938 269.818 499.74 275.973 503.945C282.128 508.151 286.526 514.468 288.334 521.7C290.142 528.932 289.234 536.576 285.783 543.183C282.332 549.791 276.577 554.903 269.609 557.55Z" fill="#FFB6B6"/>
<path d="M222.098 481.37C220.124 478.868 217.33 477.143 214.208 476.5L170.488 467.41L165.998 466.48C163.389 465.935 160.924 464.846 158.764 463.283C156.605 461.72 154.8 459.719 153.468 457.41C152.086 454.986 151.25 452.29 151.018 449.51C150.81 446.982 151.112 444.438 151.908 442.03L167.058 396.38L176.888 366.76C178.079 363.188 178.782 359.471 178.978 355.71C179.526 345.303 176.306 335.047 169.908 326.82C164.283 319.589 156.482 314.359 147.656 311.903C138.831 309.447 129.449 309.894 120.898 313.18C120.648 313.27 120.388 313.37 120.138 313.47C114.005 315.919 108.526 319.76 104.133 324.691C99.7408 329.622 96.555 335.506 94.8279 341.88L84.148 380.73L62.1179 460.82C59.9126 468.844 59.4671 477.25 60.8119 485.463C62.1566 493.675 65.2599 501.5 69.9092 508.402C74.5586 515.304 80.6444 521.12 87.7499 525.452C94.8554 529.783 102.813 532.529 111.078 533.5L174.048 540.88L203.188 544.3C206.558 544.705 209.956 543.825 212.706 541.837C215.456 539.848 217.357 536.897 218.028 533.57C218.075 533.389 218.112 533.205 218.138 533.02L218.838 528.7L224.768 492.32L224.828 491.95C225.137 490.093 225.054 488.193 224.583 486.371C224.113 484.549 223.267 482.845 222.098 481.37Z" fill="#CACACA"/>
<path d="M337.483 558.717C341.795 559.718 346.275 559.762 350.607 558.844C354.938 557.927 359.016 556.071 362.553 553.407C366.089 550.743 368.999 547.336 371.076 543.426C373.154 539.516 374.349 535.198 374.577 530.777L477.939 500.783L435.358 464.523L343.731 498.565C336.278 498.674 329.123 501.513 323.623 506.545C318.123 511.576 314.659 518.451 313.889 525.865C313.119 533.28 315.095 540.719 319.443 546.774C323.792 552.829 330.21 557.078 337.483 558.717Z" fill="#FFB6B6"/>
<path d="M529.258 433.69L480.098 320.55C476.077 311.261 468.896 303.697 459.828 299.2C457.025 297.82 454.081 296.747 451.048 296C450.578 295.88 450.108 295.77 449.638 295.68C443.206 294.276 436.534 294.399 430.158 296.04C424.33 297.537 418.883 300.246 414.172 303.99C409.461 307.734 405.592 312.43 402.818 317.77C402.788 317.814 402.761 317.861 402.738 317.91C399.639 323.904 397.991 330.543 397.927 337.291C397.863 344.038 399.384 350.707 402.368 356.76L402.978 357.98L437.718 427.75C438.904 430.135 439.573 432.745 439.679 435.408C439.786 438.07 439.329 440.725 438.337 443.198C437.346 445.671 435.842 447.906 433.926 449.758C432.01 451.609 429.724 453.034 427.218 453.94L424.778 454.82L380.898 470.67C377.605 471.845 374.897 474.251 373.343 477.383C371.79 480.515 371.512 484.127 372.568 487.46L372.678 487.81L384.978 527.17C385.038 527.35 385.098 527.53 385.168 527.71C385.276 528.049 385.41 528.38 385.568 528.7C386.875 531.631 389.186 534.001 392.084 535.381C394.982 536.761 398.278 537.062 401.378 536.23L425.058 529.98L429.888 528.7L491.038 512.55C499.084 510.424 506.576 506.584 513 501.293C519.424 496.003 524.629 489.386 528.259 481.897C531.889 474.408 533.857 466.223 534.03 457.903C534.202 449.582 532.574 441.323 529.258 433.69Z" fill="#CACACA"/>
<path d="M45.398 528.699C59.5684 545.983 74.8509 562.324 91.148 577.619H543.118C547.472 577.626 551.647 579.36 554.725 582.44C557.803 585.52 559.534 589.695 559.538 594.049L560.188 708.579C587.993 695.805 614.031 679.493 637.658 660.049C644.218 654.659 650.575 649.036 656.728 643.179C660.758 639.359 664.691 635.446 668.528 631.439C697.292 601.474 720.584 566.702 737.348 528.699H45.398Z" fill="#3F3D56"/>
<path d="M668.528 631.439C664.698 635.449 660.765 639.363 656.728 643.179H560.518V631.439H668.528Z" fill="white"/>
<path d="M459.148 255.95C458.673 255.072 457.969 254.34 457.112 253.829C456.255 253.319 455.276 253.05 454.278 253.05H126.438C124.968 253.054 123.56 253.64 122.521 254.68C121.483 255.72 120.899 257.13 120.898 258.6V454.82H459.828V258.6C459.833 257.673 459.599 256.76 459.148 255.95Z" fill="#3F3D56"/>
<path d="M120.601 449.507V473.721C120.601 474.724 120.799 475.718 121.183 476.646C121.567 477.573 122.13 478.416 122.84 479.126C123.55 479.835 124.392 480.399 125.32 480.783C126.247 481.167 127.241 481.365 128.245 481.365H253.342V529.151H251.68C251.549 529.151 251.42 529.177 251.3 529.227C251.179 529.277 251.07 529.35 250.978 529.442C250.885 529.534 250.812 529.644 250.762 529.764C250.713 529.885 250.687 530.014 250.687 530.144V533.468C250.687 533.598 250.712 533.727 250.762 533.848C250.812 533.968 250.885 534.078 250.978 534.17C251.07 534.262 251.179 534.335 251.3 534.385C251.42 534.435 251.549 534.461 251.68 534.461H329.338C329.469 534.461 329.598 534.435 329.718 534.385C329.839 534.335 329.948 534.262 330.04 534.17C330.133 534.078 330.206 533.968 330.256 533.848C330.306 533.727 330.331 533.598 330.331 533.468V530.144C330.331 530.014 330.306 529.885 330.256 529.764C330.206 529.644 330.133 529.534 330.04 529.442C329.948 529.35 329.839 529.277 329.718 529.227C329.598 529.177 329.469 529.151 329.338 529.151H327.676V481.365H452.773C453.777 481.365 454.771 481.167 455.698 480.783C456.626 480.399 457.468 479.835 458.178 479.126C458.888 478.416 459.451 477.573 459.835 476.646C460.219 475.718 460.417 474.724 460.417 473.721V449.507H120.601Z" fill="#3F3D56"/>
<path d="M286.403 380.01C303.693 380.01 317.709 365.994 317.709 348.704C317.709 331.414 303.693 317.397 286.403 317.397C269.113 317.397 255.096 331.414 255.096 348.704C255.096 365.994 269.113 380.01 286.403 380.01Z" fill="#005CFF"/>
<path d="M366.168 173H361.168C361.168 135.2 323.758 110.43 286.018 110.41C280.529 110.394 275.051 110.926 269.668 112C263.608 113.21 257.318 114.66 251.138 116.55C226.768 124.02 204.168 138.46 204.168 173C204.163 179.708 205.016 186.389 206.708 192.88L201.868 194.14C200.073 187.236 199.165 180.132 199.168 173C199.168 142.82 211.558 122.09 232.958 109.73C244.208 103.23 257.938 99.0397 273.668 96.9997C280.214 96.1288 286.831 95.9278 293.418 96.3997C336.818 99.5196 366.168 132.8 366.168 173Z" fill="#005CFF"/>
<path d="M374.498 175.769L372.528 161.209C372.042 157.533 370.271 154.146 367.528 151.649C365.767 150.022 363.659 148.816 361.364 148.123C359.068 147.43 356.645 147.268 354.278 147.649L351.148 148.079C350.292 148.192 349.466 148.474 348.719 148.908C347.973 149.343 347.319 149.921 346.798 150.609C346.272 151.296 345.887 152.08 345.666 152.915C345.444 153.751 345.391 154.623 345.508 155.479L350.058 189.019C350.245 190.387 350.858 191.66 351.809 192.66C352.76 193.659 354.002 194.334 355.358 194.589C355.76 194.67 356.168 194.71 356.578 194.709C356.872 194.709 357.166 194.689 357.458 194.649L360.958 194.179C363.092 193.896 365.145 193.18 366.992 192.074C368.839 190.968 370.441 189.497 371.698 187.749C371.968 187.369 372.228 186.979 372.468 186.579C374.342 183.307 375.058 179.499 374.498 175.769Z" fill="#005CFF"/>
<path d="M349.128 148.689C348.21 149.136 347.411 149.794 346.798 150.609C346.272 151.296 345.887 152.08 345.666 152.915C345.444 153.751 345.391 154.623 345.508 155.479L350.058 189.019C350.245 190.386 350.858 191.66 351.809 192.66C352.76 193.659 354.002 194.334 355.358 194.589L349.128 148.689Z" fill="white"/>
<path d="M374.498 175.769L372.528 161.209C372.042 157.532 370.271 154.146 367.528 151.649L372.058 185.019C372.126 185.555 372.264 186.08 372.468 186.579C374.342 183.307 375.058 179.499 374.498 175.769Z" fill="#3F3D56"/>
<path d="M358.928 186.26C360.296 186.075 360.984 182.819 360.465 178.988C359.945 175.157 358.415 172.202 357.046 172.388C355.678 172.573 354.99 175.829 355.51 179.66C356.03 183.491 357.56 186.446 358.928 186.26Z" fill="#3F3D56"/>
<path d="M355.928 168.26C357.296 168.075 357.984 164.819 357.465 160.988C356.945 157.157 355.415 154.202 354.046 154.388C352.678 154.573 351.99 157.829 352.51 161.66C353.03 165.491 354.56 168.446 355.928 168.26Z" fill="#3F3D56"/>
<path d="M374.928 175.26C376.296 175.075 376.984 171.819 376.465 167.988C375.945 164.157 374.415 161.202 373.046 161.388C371.678 161.573 370.99 164.829 371.51 168.66C372.03 172.491 373.56 175.446 374.928 175.26Z" fill="#3F3D56"/>
<path d="M286.018 110.41C280.529 110.394 275.051 110.926 269.668 112C263.608 113.21 257.318 114.66 251.138 116.55C241.488 116.08 234.388 113.58 232.958 109.73C244.208 103.23 257.938 99.0397 273.668 96.9997C280.214 96.1288 286.831 95.9278 293.418 96.3997C294.115 96.8084 294.718 97.3601 295.187 98.0185C295.656 98.6769 295.98 99.4271 296.138 100.22C296.608 103.7 292.638 107.4 286.018 110.41Z" fill="#3F3D56"/>
<path d="M222.178 207.7L214.478 175.69C214.203 174.535 213.594 173.487 212.726 172.677C211.857 171.868 210.769 171.333 209.598 171.14C209.267 171.088 208.933 171.061 208.598 171.06C208.126 171.061 207.656 171.118 207.198 171.23L204.218 171.95C200.381 172.878 197.069 175.29 195.009 178.657C192.948 182.024 192.308 186.071 193.228 189.91L196.678 204.27C197.466 207.65 199.342 210.679 202.018 212.89C202.452 213.24 202.906 213.564 203.378 213.86C205.054 214.91 206.924 215.614 208.877 215.93C210.83 216.246 212.826 216.168 214.748 215.7L217.718 214.98C218.503 214.796 219.242 214.452 219.888 213.97C220.848 213.269 221.579 212.299 221.987 211.183C222.394 210.066 222.461 208.854 222.178 207.7Z" fill="#005CFF"/>
<path d="M206.036 201.743C207.378 201.42 207.733 198.111 206.829 194.353C205.924 190.594 204.103 187.809 202.76 188.132C201.418 188.455 201.063 191.764 201.967 195.523C202.872 199.281 204.693 202.066 206.036 201.743Z" fill="#3F3D56"/>
<path d="M196.036 204.743C197.378 204.42 197.733 201.111 196.829 197.353C195.924 193.594 194.103 190.809 192.76 191.132C191.418 191.455 191.063 194.764 191.967 198.523C192.872 202.281 194.693 205.066 196.036 204.743Z" fill="#3F3D56"/>
<path d="M222.668 207.579L214.968 175.569C214.668 174.32 214.006 173.187 213.065 172.311C212.124 171.436 210.946 170.858 209.678 170.649L220.188 214.369C221.226 213.609 222.015 212.559 222.457 211.35C222.898 210.142 222.972 208.83 222.668 207.579Z" fill="white"/>
<path d="M194.968 183.569C194.756 182.679 194.357 181.844 193.798 181.119C192.716 183.922 192.517 186.99 193.228 189.909L196.678 204.269C197.466 207.65 199.342 210.678 202.018 212.889L194.968 183.569Z" fill="#3F3D56"/>
</g>
<defs>
<clipPath id="clip0_1195_71544">
<rect width="850.538" height="740.83" fill="white" transform="translate(0.5)"/>
</clipPath>
</defs>
</svg>
