<svg width="898" height="557" viewBox="0 0 898 557" fill="none" xmlns="http://www.w3.org/2000/svg">
<g clip-path="url(#clip0_1195_71497)">
<path d="M217.839 502.047L218.837 479.613C229.238 474.053 240.839 471.116 252.632 471.058C236.401 484.328 238.429 509.909 227.425 527.754C223.95 533.294 219.273 537.981 213.74 541.467C208.208 544.953 201.962 547.15 195.465 547.894L181.882 556.211C180.018 545.82 180.429 535.149 183.087 524.933C185.744 514.716 190.585 505.197 197.275 497.032C201.074 492.488 205.43 488.441 210.24 484.986C213.493 493.564 217.839 502.047 217.839 502.047Z" fill="#F2F2F2"/>
<path d="M797.422 36.5522H165.098C164.833 36.5464 164.58 36.4368 164.394 36.247C164.209 36.0573 164.105 35.8023 164.105 35.5368C164.105 35.2713 164.209 35.0164 164.394 34.8266C164.58 34.6369 164.833 34.5273 165.098 34.5215H797.422C797.687 34.5273 797.939 34.6369 798.125 34.8266C798.311 35.0164 798.415 35.2713 798.415 35.5368C798.415 35.8023 798.311 36.0573 798.125 36.247C797.939 36.4368 797.687 36.5464 797.422 36.5522Z" fill="#CACACA"/>
<path d="M187.453 22.3376C193.487 22.3376 198.379 17.3372 198.379 11.1688C198.379 5.00045 193.487 0 187.453 0C181.419 0 176.528 5.00045 176.528 11.1688C176.528 17.3372 181.419 22.3376 187.453 22.3376Z" fill="#3F3D56"/>
<path d="M225.195 22.3376C231.229 22.3376 236.121 17.3372 236.121 11.1688C236.121 5.00045 231.229 0 225.195 0C219.161 0 214.27 5.00045 214.27 11.1688C214.27 17.3372 219.161 22.3376 225.195 22.3376Z" fill="#3F3D56"/>
<path d="M262.937 22.3376C268.971 22.3376 273.863 17.3372 273.863 11.1688C273.863 5.00045 268.971 0 262.937 0C256.904 0 252.012 5.00045 252.012 11.1688C252.012 17.3372 256.904 22.3376 262.937 22.3376Z" fill="#3F3D56"/>
<path d="M774.804 2.76855H747.994C747.463 2.7791 746.957 2.99762 746.585 3.37717C746.213 3.75672 746.004 4.26704 746.004 4.79855C746.004 5.33007 746.213 5.84039 746.585 6.21994C746.957 6.59949 747.463 6.818 747.994 6.82855H774.804C775.336 6.818 775.842 6.59949 776.214 6.21994C776.586 5.84039 776.795 5.33007 776.795 4.79855C776.795 4.26704 776.586 3.75672 776.214 3.37717C775.842 2.99762 775.336 2.7791 774.804 2.76855Z" fill="#3F3D56"/>
<path d="M774.804 10.3887H747.994C747.463 10.3992 746.957 10.6177 746.585 10.9973C746.213 11.3768 746.004 11.8872 746.004 12.4187C746.004 12.9502 746.213 13.4605 746.585 13.8401C746.957 14.2196 747.463 14.4381 747.994 14.4487H774.804C775.336 14.4381 775.842 14.2196 776.214 13.8401C776.586 13.4605 776.795 12.9502 776.795 12.4187C776.795 11.8872 776.586 11.3768 776.214 10.9973C775.842 10.6177 775.336 10.3992 774.804 10.3887Z" fill="#3F3D56"/>
<path d="M774.804 17.998H747.994C747.463 18.0086 746.957 18.2271 746.585 18.6066C746.213 18.9862 746.004 19.4965 746.004 20.028C746.004 20.5596 746.213 21.0699 746.585 21.4494C746.957 21.829 747.463 22.0475 747.994 22.058H774.804C775.336 22.0475 775.842 21.829 776.214 21.4494C776.586 21.0699 776.795 20.5596 776.795 20.028C776.795 19.4965 776.586 18.9862 776.214 18.6066C775.842 18.2271 775.336 18.0086 774.804 17.998Z" fill="#3F3D56"/>
<path d="M657.213 116.142H223.203C221.065 116.142 219.014 116.991 217.501 118.502C215.987 120.013 215.136 122.063 215.133 124.202V329.072C215.136 331.211 215.987 333.262 217.5 334.775C219.012 336.288 221.064 337.139 223.203 337.142H657.213C659.351 337.137 661.4 336.285 662.911 334.772C664.422 333.26 665.271 331.21 665.273 329.072V124.202C665.271 122.065 664.421 120.016 662.91 118.505C661.399 116.994 659.35 116.144 657.213 116.142Z" fill="#3F3D56"/>
<path d="M542.573 214.842C540.436 214.844 538.387 215.694 536.876 217.205C535.365 218.716 534.515 220.765 534.513 222.902V280.772C534.515 282.91 535.364 284.96 536.875 286.473C538.386 287.985 540.435 288.837 542.573 288.842H665.273V214.842H542.573Z" fill="#005CFF"/>
<path opacity="0.5" d="M871.588 288.837H542.578C540.439 288.834 538.389 287.984 536.876 286.472C535.364 284.959 534.514 282.909 534.511 280.771V222.903C534.514 220.764 535.364 218.714 536.877 217.202C538.389 215.69 540.439 214.839 542.578 214.837H871.588C873.726 214.839 875.777 215.69 877.289 217.202C878.801 218.714 879.652 220.764 879.654 222.903V280.771C879.652 282.909 878.801 284.959 877.289 286.472C875.777 287.984 873.726 288.834 871.588 288.837Z" fill="#005CFF"/>
<path d="M587.071 268.626C594.3 268.626 600.16 262.766 600.16 255.537C600.16 248.308 594.3 242.447 587.071 242.447C579.842 242.447 573.982 248.308 573.982 255.537C573.982 262.766 579.842 268.626 587.071 268.626Z" fill="white"/>
<path d="M861.394 251.734H624.88C623.846 251.734 622.855 251.323 622.124 250.592C621.393 249.861 620.982 248.87 620.982 247.836C620.982 246.802 621.393 245.811 622.124 245.08C622.855 244.349 623.846 243.938 624.88 243.938H861.394C862.428 243.938 863.419 244.349 864.15 245.08C864.881 245.811 865.292 246.802 865.292 247.836C865.292 248.87 864.881 249.861 864.15 250.592C863.419 251.323 862.428 251.734 861.394 251.734Z" fill="white"/>
<path d="M771.563 267.136H624.88C623.846 267.136 622.854 266.725 622.123 265.994C621.392 265.263 620.982 264.272 620.982 263.238C620.982 262.204 621.392 261.213 622.123 260.482C622.854 259.751 623.846 259.34 624.88 259.34H771.563C772.597 259.34 773.589 259.751 774.32 260.482C775.051 261.213 775.461 262.204 775.461 263.238C775.461 264.272 775.051 265.263 774.32 265.994C773.589 266.725 772.597 267.136 771.563 267.136Z" fill="white"/>
<path d="M151.906 545.537L163.234 545.536L168.623 501.843H151.904L151.906 545.537Z" fill="#FFB6B6"/>
<path d="M149.017 541.838L152.205 541.838L164.654 536.775L171.325 541.837C175.096 541.837 178.713 543.335 181.379 546.001C184.045 548.667 185.543 552.283 185.543 556.054V556.516L149.017 556.517L149.017 541.838Z" fill="#2F2E41"/>
<path d="M49.551 530.809L59.69 535.862L84.004 499.161L69.041 491.703L49.551 530.809Z" fill="#FFB6B6"/>
<path d="M48.6149 526.21L51.4686 527.632L64.8681 528.655L68.5813 536.161C71.9557 537.843 74.5246 540.797 75.7214 544.373C76.9182 547.948 76.6458 551.853 74.9641 555.227L74.7579 555.641L42.0673 539.348L48.6149 526.21Z" fill="#2F2E41"/>
<path d="M156.925 347.097L84.8992 348.976L86.1518 384.049C86.1518 384.049 84.8992 393.444 87.4044 395.949C89.9097 398.454 91.1623 398.454 89.9097 402.839C88.657 407.223 85.4187 449.112 85.4187 449.112C85.4187 449.112 55.8572 501.382 57.1098 502.635C58.3624 503.887 59.615 502.635 58.3624 505.766C57.1098 508.898 55.8572 507.645 57.1098 508.898C58.2194 510.094 59.2647 511.349 60.2414 512.656H80.6569C80.6569 512.656 81.7986 506.393 81.7986 505.766C81.7986 505.14 83.0512 501.382 83.0512 500.756C83.0512 500.129 118.72 462.338 118.72 462.338L126.236 399.707L144.399 461.086C144.399 461.086 144.399 514.949 145.652 516.201C146.904 517.454 146.904 516.828 146.278 519.333C145.652 521.838 143.146 521.212 145.025 523.091C146.904 524.97 147.53 521.838 146.904 524.97L146.278 528.101L170.34 528.37C170.34 528.37 172.846 523.091 171.593 521.212C170.34 519.333 170.415 519.846 171.944 516.771C173.472 513.696 174.098 513.07 173.472 512.443C172.846 511.817 172.846 508.486 172.846 508.486C172.846 508.486 163.815 385.302 163.815 383.423C163.767 382.456 163.946 381.491 164.335 380.605V378.055L161.936 369.018L156.925 347.097Z" fill="#2F2E41"/>
<path d="M870.18 238.347C864.714 238.347 859.371 236.726 854.826 233.689C850.281 230.653 846.738 226.336 844.646 221.286C842.554 216.236 842.007 210.679 843.073 205.317C844.14 199.956 846.772 195.032 850.637 191.166C854.503 187.301 859.427 184.669 864.789 183.602C870.15 182.536 875.707 183.083 880.757 185.175C885.807 187.267 890.124 190.809 893.161 195.354C896.197 199.899 897.818 205.243 897.818 210.709C897.818 218.039 894.907 225.069 889.723 230.252C884.54 235.435 877.51 238.347 870.18 238.347Z" fill="#005CFF"/>
<path d="M881.086 207.983H872.907V199.804C872.907 199.081 872.62 198.388 872.108 197.877C871.597 197.365 870.903 197.078 870.18 197.078C869.457 197.078 868.764 197.365 868.253 197.877C867.741 198.388 867.454 199.081 867.454 199.804V207.983H859.275C858.917 207.983 858.562 208.053 858.23 208.189C857.899 208.326 857.598 208.527 857.344 208.78C857.09 209.033 856.889 209.334 856.752 209.665C856.614 209.996 856.544 210.351 856.544 210.71C856.544 211.068 856.614 211.423 856.752 211.754C856.889 212.085 857.09 212.386 857.344 212.639C857.598 212.893 857.899 213.093 858.23 213.23C858.562 213.367 858.917 213.437 859.275 213.436H867.454V221.615C867.454 222.338 867.741 223.032 868.253 223.543C868.764 224.054 869.457 224.341 870.18 224.341C870.903 224.341 871.597 224.054 872.108 223.543C872.62 223.032 872.907 222.338 872.907 221.615V213.436H881.086C881.809 213.436 882.502 213.149 883.013 212.638C883.525 212.126 883.812 211.433 883.812 210.71C883.812 209.987 883.525 209.293 883.013 208.782C882.502 208.271 881.809 207.983 881.086 207.983Z" fill="white"/>
<path d="M448.383 289.212H343.373C341.234 289.214 339.182 290.065 337.67 291.578C336.157 293.091 335.306 295.142 335.303 297.282V337.142H456.443V297.282C456.442 295.144 455.592 293.094 454.081 291.581C452.57 290.068 450.521 289.216 448.383 289.212Z" fill="#005CFF"/>
<path opacity="0.5" d="M448.38 401.212H343.37C341.231 401.209 339.181 400.359 337.668 398.847C336.156 397.334 335.306 395.284 335.303 393.146V297.278C335.306 295.139 336.156 293.089 337.669 291.577C339.181 290.065 341.231 289.214 343.37 289.212H448.38C450.518 289.214 452.569 290.065 454.081 291.577C455.593 293.089 456.444 295.139 456.446 297.278V393.146C456.444 395.284 455.593 397.334 454.081 398.847C452.569 400.359 450.518 401.209 448.38 401.212Z" fill="#005CFF"/>
<path d="M374.308 334.652C381.537 334.652 387.398 328.792 387.398 321.563C387.398 314.334 381.537 308.474 374.308 308.474C367.079 308.474 361.219 314.334 361.219 321.563C361.219 328.792 367.079 334.652 374.308 334.652Z" fill="white"/>
<path d="M426.631 354.547H365.117C364.083 354.547 363.092 354.137 362.361 353.406C361.63 352.675 361.219 351.683 361.219 350.65C361.219 349.616 361.63 348.625 362.361 347.894C363.092 347.163 364.083 346.752 365.117 346.752H426.631C427.665 346.752 428.656 347.163 429.387 347.894C430.118 348.625 430.529 349.616 430.529 350.65C430.529 351.683 430.118 352.675 429.387 353.406C428.656 354.137 427.665 354.547 426.631 354.547Z" fill="white"/>
<path d="M394.801 369.949H365.117C364.083 369.949 363.092 369.539 362.361 368.807C361.63 368.076 361.219 367.085 361.219 366.051C361.219 365.017 361.63 364.026 362.361 363.295C363.092 362.564 364.083 362.153 365.117 362.153H394.801C395.834 362.153 396.826 362.564 397.557 363.295C398.288 364.026 398.699 365.017 398.699 366.051C398.699 367.085 398.288 368.076 397.557 368.807C396.826 369.539 395.834 369.949 394.801 369.949Z" fill="white"/>
<path d="M341.18 429.347C335.714 429.347 330.371 427.726 325.826 424.689C321.28 421.653 317.738 417.336 315.646 412.286C313.554 407.236 313.007 401.679 314.073 396.317C315.14 390.956 317.772 386.032 321.637 382.166C325.503 378.301 330.427 375.669 335.788 374.602C341.15 373.536 346.707 374.083 351.757 376.175C356.807 378.267 361.124 381.809 364.161 386.354C367.197 390.9 368.818 396.243 368.818 401.709C368.818 409.039 365.907 416.069 360.723 421.252C355.54 426.435 348.51 429.347 341.18 429.347Z" fill="#005CFF"/>
<path d="M352.086 398.983H343.907V390.804C343.907 390.081 343.619 389.388 343.108 388.877C342.597 388.365 341.903 388.078 341.18 388.078C340.457 388.078 339.764 388.365 339.253 388.877C338.741 389.388 338.454 390.081 338.454 390.804V398.983H330.275C329.917 398.983 329.561 399.053 329.23 399.19C328.899 399.326 328.598 399.527 328.344 399.78C328.09 400.033 327.889 400.334 327.751 400.665C327.614 400.996 327.543 401.351 327.543 401.71C327.543 402.068 327.614 402.423 327.751 402.754C327.889 403.085 328.09 403.386 328.344 403.639C328.598 403.893 328.899 404.093 329.23 404.23C329.561 404.367 329.917 404.437 330.275 404.436H338.454V412.615C338.454 413.338 338.741 414.032 339.253 414.543C339.764 415.054 340.457 415.341 341.18 415.341C341.903 415.341 342.597 415.054 343.108 414.543C343.619 414.032 343.907 413.338 343.907 412.615V404.436H352.086C352.809 404.436 353.502 404.149 354.013 403.638C354.525 403.126 354.812 402.433 354.812 401.71C354.812 400.987 354.525 400.293 354.013 399.782C353.502 399.271 352.809 398.983 352.086 398.983Z" fill="white"/>
<path d="M328.387 228.267H223.377C221.238 228.264 219.188 227.414 217.676 225.901C216.163 224.389 215.313 222.339 215.31 220.2V124.333C215.313 122.194 216.164 120.144 217.676 118.632C219.188 117.12 221.238 116.269 223.377 116.267H328.387C330.525 116.269 332.576 117.12 334.088 118.632C335.6 120.144 336.451 122.194 336.453 124.333V220.2C336.451 222.339 335.6 224.389 334.088 225.901C332.576 227.414 330.526 228.264 328.387 228.267Z" fill="#005CFF"/>
<path d="M254.316 169.707C261.545 169.707 267.406 163.847 267.406 156.618C267.406 149.389 261.545 143.528 254.316 143.528C247.087 143.528 241.227 149.389 241.227 156.618C241.227 163.847 247.087 169.707 254.316 169.707Z" fill="#005CFF"/>
<path d="M306.639 185.602H245.125C244.091 185.602 243.1 185.191 242.369 184.461C241.638 183.73 241.227 182.738 241.227 181.704C241.227 180.671 241.638 179.679 242.369 178.948C243.1 178.217 244.091 177.807 245.125 177.807H306.639C307.673 177.807 308.664 178.217 309.395 178.948C310.126 179.679 310.537 180.671 310.537 181.704C310.537 182.738 310.126 183.73 309.395 184.461C308.664 185.191 307.673 185.602 306.639 185.602Z" fill="#005CFF"/>
<path d="M274.809 201.004H245.125C244.091 201.004 243.1 200.593 242.369 199.862C241.638 199.131 241.227 198.14 241.227 197.106C241.227 196.072 241.638 195.081 242.369 194.35C243.1 193.619 244.091 193.208 245.125 193.208H274.809C275.842 193.208 276.834 193.619 277.565 194.35C278.296 195.081 278.706 196.072 278.706 197.106C278.706 198.14 278.296 199.131 277.565 199.862C276.834 200.593 275.842 201.004 274.809 201.004Z" fill="#005CFF"/>
<path opacity="0.5" d="M328.387 228.267H223.377C221.238 228.264 219.188 227.414 217.676 225.901C216.163 224.389 215.313 222.339 215.31 220.2V124.333C215.313 122.194 216.164 120.144 217.676 118.632C219.188 117.12 221.238 116.269 223.377 116.267H328.387C330.525 116.269 332.576 117.12 334.088 118.632C335.6 120.144 336.451 122.194 336.453 124.333V220.2C336.451 222.339 335.6 224.389 334.088 225.901C332.576 227.414 330.526 228.264 328.387 228.267Z" fill="#005CFF"/>
<path d="M254.316 169.707C261.545 169.707 267.406 163.847 267.406 156.618C267.406 149.389 261.545 143.528 254.316 143.528C247.087 143.528 241.227 149.389 241.227 156.618C241.227 163.847 247.087 169.707 254.316 169.707Z" fill="white"/>
<path d="M306.639 185.602H245.125C244.091 185.602 243.1 185.191 242.369 184.461C241.638 183.73 241.227 182.738 241.227 181.704C241.227 180.671 241.638 179.679 242.369 178.948C243.1 178.217 244.091 177.807 245.125 177.807H306.639C307.673 177.807 308.664 178.217 309.395 178.948C310.126 179.679 310.537 180.671 310.537 181.704C310.537 182.738 310.126 183.73 309.395 184.461C308.664 185.191 307.673 185.602 306.639 185.602Z" fill="white"/>
<path d="M274.809 201.004H245.125C244.091 201.004 243.1 200.593 242.369 199.862C241.638 199.131 241.227 198.14 241.227 197.106C241.227 196.072 241.638 195.081 242.369 194.35C243.1 193.619 244.091 193.208 245.125 193.208H274.809C275.842 193.208 276.834 193.619 277.565 194.35C278.296 195.081 278.706 196.072 278.706 197.106C278.706 198.14 278.296 199.131 277.565 199.862C276.834 200.593 275.842 201.004 274.809 201.004Z" fill="white"/>
<path d="M225.543 136.951C237.141 136.951 246.543 127.549 246.543 115.951C246.543 104.353 237.141 94.9512 225.543 94.9512C213.945 94.9512 204.543 104.353 204.543 115.951C204.543 127.549 213.945 136.951 225.543 136.951Z" fill="#FF6584"/>
<path d="M283.17 555.786C283.171 555.942 283.14 556.097 283.08 556.242C283.021 556.386 282.933 556.518 282.823 556.628C282.712 556.739 282.581 556.826 282.436 556.886C282.291 556.946 282.136 556.976 281.98 556.976H1.69C1.37439 556.976 1.07171 556.85 0.848541 556.627C0.625373 556.404 0.5 556.101 0.5 555.786C0.5 555.47 0.625373 555.167 0.848541 554.944C1.07171 554.721 1.37439 554.596 1.69 554.596H281.98C282.136 554.595 282.291 554.626 282.436 554.685C282.581 554.745 282.712 554.833 282.823 554.943C282.933 555.054 283.021 555.185 283.08 555.33C283.14 555.474 283.171 555.629 283.17 555.786Z" fill="#CCCCCC"/>
<path d="M221.055 171.576C221.918 173.99 221.798 176.646 220.721 178.973C219.644 181.299 217.695 183.108 215.296 184.011C214.765 184.21 214.218 184.36 213.661 184.462L208.114 218.422L195.104 206.409L202.366 176.002C202.097 173.44 202.847 170.875 204.455 168.862C206.062 166.848 208.397 165.548 210.955 165.243C213.108 164.996 215.28 165.489 217.115 166.64C218.95 167.79 220.34 169.531 221.055 171.576Z" fill="#FFB6B6"/>
<path d="M125.04 248.524C125.04 248.524 135.138 235.183 171.779 235.548L192.577 227.992L197.33 184.422L213.966 188.383L211.589 242.251L175.941 262.848L129.202 272.354L125.04 248.524Z" fill="#3F3D56"/>
<path d="M119.675 220.73C131.686 220.73 141.423 210.994 141.423 198.983C141.423 186.972 131.686 177.235 119.675 177.235C107.665 177.235 97.9279 186.972 97.9279 198.983C97.9279 210.994 107.665 220.73 119.675 220.73Z" fill="#FFB6B6"/>
<path d="M82.8673 363.878C82.8287 363.878 82.7903 363.873 82.7531 363.862C82.3516 363.75 82.0344 363.662 83.4834 351.133L85.0473 341.229L83.5206 332.485L80.9526 329.917L85.0798 325.79L88.5433 315.952L82.5505 307.071L75.6749 270.755C74.4929 264.489 75.4114 258.007 78.2881 252.316C81.1648 246.624 85.8388 242.041 91.5855 239.277L99.5433 236.952L102.439 231.642C103.252 230.151 104.449 228.904 105.906 228.032C107.363 227.159 109.027 226.692 110.725 226.68L125.298 226.571C126.768 226.56 128.221 226.889 129.543 227.534C130.864 228.178 132.018 229.12 132.915 230.286L137.999 236.895L159.081 244.056L155.586 319.378C156.141 319.842 156.594 320.417 156.915 321.066C157.237 321.715 157.421 322.423 157.454 323.146C157.488 323.87 157.371 324.592 157.112 325.268C156.852 325.944 156.454 326.559 155.945 327.073C155.726 327.294 155.552 327.474 155.444 327.593C155.089 328.098 155.756 331.868 156.579 335.069L157.635 339.97C157.296 340.212 157.011 340.522 156.798 340.88C156.585 341.238 156.448 341.636 156.397 342.049C156.346 342.462 156.38 342.882 156.499 343.281C156.618 343.68 156.818 344.05 157.087 344.368L158.434 345.959C158.7 347.953 158.164 349.972 156.945 351.572C155.725 353.172 153.92 354.223 151.926 354.494C132.659 357.116 82.968 363.878 82.8673 363.878Z" fill="#3F3D56"/>
<path d="M114.112 219.666C114.019 219.461 113.926 219.256 113.834 219.05C113.87 219.051 113.905 219.056 113.94 219.057L114.112 219.666Z" fill="#2F2E41"/>
<path d="M97.323 178.224C98.3556 177.25 99.6978 176.67 101.115 176.585C102.521 176.63 103.947 177.9 103.656 179.277C106.239 174.703 110.35 171.186 115.269 169.342C120.187 167.498 125.597 167.445 130.551 169.192C134.046 170.425 137.473 172.892 138.276 176.511C138.354 177.461 138.638 178.382 139.107 179.212C139.513 179.656 140.04 179.971 140.623 180.119C141.207 180.266 141.82 180.24 142.389 180.044L142.423 180.034C142.618 179.967 142.828 179.961 143.026 180.015C143.225 180.069 143.402 180.182 143.536 180.338C143.67 180.494 143.754 180.687 143.777 180.891C143.8 181.095 143.761 181.302 143.665 181.484L142.676 183.328C143.923 183.606 145.218 183.579 146.452 183.248C146.657 183.194 146.873 183.205 147.072 183.28C147.27 183.354 147.441 183.488 147.56 183.663C147.68 183.838 147.742 184.045 147.739 184.257C147.735 184.469 147.667 184.675 147.542 184.846C145.898 187.094 143.753 188.928 141.276 190.202C138.798 191.475 136.058 192.152 133.273 192.18C129.322 192.156 125.33 190.794 121.484 191.703C119.996 192.054 118.606 192.735 117.416 193.693C116.225 194.652 115.264 195.866 114.604 197.244C113.943 198.623 113.6 200.132 113.599 201.66C113.597 203.189 113.938 204.699 114.597 206.078C113.415 204.786 111.131 205.092 109.923 206.359C109.366 207.037 108.955 207.823 108.714 208.666C108.474 209.51 108.409 210.394 108.523 211.264C108.846 213.928 109.637 216.514 110.86 218.902C106.187 218.759 101.671 217.184 97.9217 214.392C94.1724 211.599 91.3704 207.724 89.8943 203.288C88.4182 198.852 88.339 194.07 89.6676 189.588C90.9961 185.106 93.6682 181.139 97.323 178.224Z" fill="#2F2E41"/>
<path d="M91.3395 395.068C89.2603 393.568 87.8537 391.312 87.423 388.785C86.9923 386.258 87.572 383.662 89.0372 381.559C89.3622 381.095 89.7276 380.66 90.1292 380.261L75.454 349.138L92.9808 351.662L104.23 380.83C105.903 382.789 106.738 385.328 106.555 387.897C106.372 390.467 105.184 392.862 103.25 394.563C101.616 395.986 99.5475 396.811 97.3832 396.903C95.2188 396.995 93.0875 396.348 91.3395 395.068Z" fill="#FFB6B6"/>
<path d="M86.8954 378.074L63.5433 325.591L63.3094 284.139L70.6705 261.749C71.6692 258.711 73.2667 255.904 75.3686 253.494C77.4705 251.085 80.0342 249.121 82.9081 247.718C85.782 246.316 88.9078 245.505 92.1008 245.331C95.2937 245.158 98.4891 245.626 101.498 246.709L101.66 246.767L101.728 246.925C102 247.56 108.174 262.832 89.8609 294.248L86.1754 315.744L99.1075 365.018L86.8954 378.074Z" fill="#3F3D56"/>
</g>
<defs>
<clipPath id="clip0_1195_71497">
<rect width="897.318" height="556.975" fill="white" transform="translate(0.5)"/>
</clipPath>
</defs>
</svg>
