<svg width="683" height="683" viewBox="0 0 683 683" fill="none" xmlns="http://www.w3.org/2000/svg">
<g clip-path="url(#clip0_214_14)">
<path d="M448 293.333C448 308.063 459.938 320 474.667 320C489.396 320 501.333 308.063 501.333 293.333C501.333 231.479 466.052 177.719 414.557 151.099C427.135 135.198 434.667 115.135 434.667 93.3333C434.667 41.8698 392.797 0 341.333 0C289.87 0 248 41.8698 248 93.3333C248 115.135 255.531 135.198 268.109 151.099C216.615 177.719 181.333 231.479 181.333 293.333C181.333 308.063 193.271 320 208 320C222.729 320 234.667 308.063 234.667 293.333C234.667 234.516 282.516 186.667 341.333 186.667C400.151 186.667 448 234.516 448 293.333ZM301.333 93.3333C301.333 71.276 319.276 53.3333 341.333 53.3333C363.391 53.3333 381.333 71.276 381.333 93.3333C381.333 115.391 363.391 133.333 341.333 133.333C319.276 133.333 301.333 115.391 301.333 93.3333ZM233.224 513.766C245.802 497.865 253.333 477.802 253.333 456C253.333 404.536 211.464 362.667 160 362.667C108.536 362.667 66.6667 404.536 66.6667 456C66.6667 477.802 74.1979 497.865 86.776 513.766C35.2813 540.385 0 594.146 0 656C0 670.729 11.9375 682.667 26.6667 682.667C41.3958 682.667 53.3333 670.729 53.3333 656C53.3333 597.182 101.182 549.333 160 549.333C218.818 549.333 266.667 597.182 266.667 656C266.667 670.729 278.604 682.667 293.333 682.667C308.063 682.667 320 670.729 320 656C320 594.146 284.719 540.385 233.224 513.766ZM120 456C120 433.943 137.943 416 160 416C182.057 416 200 433.943 200 456C200 478.057 182.057 496 160 496C137.943 496 120 478.057 120 456ZM595.891 513.766C608.469 497.865 616 477.802 616 456C616 404.536 574.13 362.667 522.667 362.667C471.203 362.667 429.333 404.536 429.333 456C429.333 477.802 436.865 497.865 449.443 513.766C397.948 540.385 362.667 594.146 362.667 656C362.667 670.729 374.604 682.667 389.333 682.667C404.063 682.667 416 670.729 416 656C416 597.182 463.849 549.333 522.667 549.333C581.484 549.333 629.333 597.182 629.333 656C629.333 670.729 641.271 682.667 656 682.667C670.729 682.667 682.667 670.729 682.667 656C682.667 594.146 647.385 540.385 595.891 513.766ZM482.667 456C482.667 433.943 500.609 416 522.667 416C544.724 416 562.667 433.943 562.667 456C562.667 478.057 544.724 496 522.667 496C500.609 496 482.667 478.057 482.667 456Z" fill="#1F50FF"/>
</g>
<defs>
<clipPath id="clip0_214_14">
<rect width="682.667" height="682.667" fill="white"/>
</clipPath>
</defs>
</svg>
