<svg width="512" height="512" viewBox="0 0 512 512" fill="none" xmlns="http://www.w3.org/2000/svg">
<g clip-path="url(#clip0_223_70)">
<path d="M492 352H419.674L384.119 320H412C467.141 320 512 275.14 512 220C512 171.848 480.757 130.524 434.323 121.708C425.705 75.272 384.894 40 336 40C329.283 40 322.442 40.771 315.55 42.301C289.192 15.267 253.595 0 216 0C144.972 0 86.127 53.175 77.177 121.804C31.032 130.82 0 171.967 0 220C0 275.245 40.755 320 96 320H125.808L92.03 352H20C8.954 352 0 360.954 0 372V452C0 463.046 8.954 472 20 472H100C111.046 472 120 463.046 120 452V380.603L183.969 320H236V392H216C204.954 392 196 400.954 196 412V492C196 503.046 204.954 512 216 512H296C307.046 512 316 503.046 316 492V412C316 400.954 307.046 392 296 392H276V320H324.326L392 380.907V452C392 463.046 400.954 472 412 472H492C503.046 472 512 463.046 512 452V372C512 360.954 503.046 352 492 352ZM80 432H40V392H80V432ZM276 472H236V432H276V472ZM40 220C40 185.794 64.075 160 96 160C107.046 160 116 151.046 116 140C116 84.86 160.859 40 216 40C245.921 40 274.143 53.694 293.43 77.572C298.786 84.203 307.755 86.711 315.775 83.818C322.898 81.249 329.514 80 336 80C369.084 80 396 106.916 396 140C396 151.046 404.954 160 416 160C447.925 160 472 185.794 472 220C472 253.084 445.084 280 412 280H96C64.075 280 40 254.206 40 220ZM472 432H432V392H472V432Z" fill="#1F50FF"/>
</g>
<defs>
<clipPath id="clip0_223_70">
<rect width="512" height="512" fill="white"/>
</clipPath>
</defs>
</svg>
