<svg width="683" height="683" viewBox="0 0 683 683" fill="none" xmlns="http://www.w3.org/2000/svg">
<g clip-path="url(#clip0_214_20)">
<path d="M639.859 250.031L519.62 341.401V271.265C519.62 256.536 507.682 244.599 492.953 244.599H26.6671C11.938 244.599 0.000488281 256.536 0.000488281 271.265V655.994C0.000488281 670.718 11.938 682.656 26.6671 682.656H492.953C507.682 682.656 519.62 670.718 519.62 655.994V585.854L639.859 677.223C657.255 690.442 682.661 678.119 682.661 655.994V271.265C682.661 249.26 657.396 236.703 639.859 250.031ZM466.286 629.327H53.3338V297.932H466.286V629.327ZM629.328 602.234L519.62 518.869V408.39L629.328 325.02V602.234ZM117.287 105.651C172.823 38.5104 254.485 0 341.328 0C428.172 0 509.833 38.5104 565.375 105.651C574.76 117 573.172 133.812 561.823 143.198C550.505 152.557 533.687 151.026 524.276 139.646C478.906 84.7916 412.224 53.3333 341.328 53.3333C270.438 53.3333 203.755 84.7916 158.386 139.646C149 150.995 132.188 152.588 120.839 143.198C109.49 133.812 107.901 117 117.287 105.651ZM437.76 148.604C450.292 156.338 454.177 172.771 446.443 185.302C438.719 197.807 422.297 201.734 409.74 193.979C389.203 181.297 365.547 174.594 341.328 174.594C317.115 174.594 293.459 181.297 272.917 193.979C260.386 201.719 243.959 197.833 236.219 185.302C228.479 172.771 232.365 156.338 244.896 148.604C273.865 130.713 307.209 121.26 341.328 121.26C375.453 121.26 408.797 130.713 437.76 148.604Z" fill="#1F50FF"/>
</g>
<defs>
<clipPath id="clip0_214_20">
<rect width="682.667" height="682.667" fill="white"/>
</clipPath>
</defs>
</svg>
