<svg width="512" height="512" viewBox="0 0 512 512" fill="none" xmlns="http://www.w3.org/2000/svg">
<g clip-path="url(#clip0_214_9)">
<path d="M459.281 52.7195C423.755 17.1945 374.578 -1.963 324.358 0.161938C313.323 0.628925 304.755 9.95267 305.221 20.9884C305.688 32.0241 315.044 40.5948 326.047 40.1248C365.114 38.4729 403.365 53.3725 430.996 81.0027C457.439 107.445 472.001 142.601 472.001 179.995C472.001 217.39 457.44 252.545 430.996 278.987C376.414 333.572 287.598 333.571 233.015 278.989C233.014 278.988 233.014 278.988 233.013 278.987C233.012 278.986 233.012 278.986 233.011 278.985C208.815 254.789 194.347 222.677 192.27 188.564C191.6 177.539 182.119 169.146 171.091 169.816C160.067 170.487 151.673 179.969 152.345 190.994C154.608 228.17 168.316 263.493 191.376 292.339L162.304 321.411L148.162 307.27C140.351 299.459 127.69 299.46 119.878 307.27L17.5876 409.563C-5.86173 433.011 -5.86172 470.964 17.5866 494.413C41.037 517.863 78.988 517.862 102.438 494.413L204.73 392.122C208.48 388.372 210.587 383.284 210.587 377.981C210.587 372.677 208.48 367.59 204.73 363.839L190.589 349.697L219.662 320.624C252.385 346.805 292.193 359.907 332.007 359.907C378.1 359.907 424.192 342.363 459.282 307.273C493.279 273.275 512.002 228.075 512.002 179.996C512 131.917 493.278 86.7166 459.281 52.7195ZM74.1531 466.13C66.3373 473.947 53.6866 473.947 45.8709 466.13C45.8709 466.13 45.8709 466.13 45.8699 466.13C38.0541 458.314 38.0541 445.662 45.8709 437.847L134.02 349.697L148.158 363.835C148.159 363.836 148.16 363.838 148.161 363.839C148.162 363.84 148.163 363.841 148.165 363.842L162.304 377.981L74.1531 466.13Z" fill="#1F50FF"/>
<path d="M60.0125 231.995C93.0956 231.995 120.011 205.079 120.011 171.996C120.011 165.839 119.076 159.898 117.345 154.302L178.558 109.783C188.122 116.23 199.633 119.998 212.008 119.998C224.291 119.998 235.72 116.282 245.24 109.923L314.748 162.054C312.969 167.721 312.006 173.748 312.006 179.996C312.006 213.079 338.921 239.994 372.004 239.994C405.087 239.994 432.002 213.079 432.002 179.996C432.002 146.913 405.087 119.998 372.004 119.998C359.721 119.998 348.293 123.714 338.772 130.072L269.265 77.9418C271.045 72.274 272.008 66.2472 272.008 59.9993C272.008 26.9162 245.092 0.000976562 212.009 0.000976562C178.926 0.000976562 152.011 26.9162 152.011 59.9993C152.011 66.1562 152.946 72.098 154.677 77.6939L93.4636 122.213C83.8998 115.766 72.3892 111.998 60.0135 111.998C26.9304 111.998 0.0151367 138.913 0.0151367 171.996C0.0141368 205.079 26.9294 231.995 60.0125 231.995ZM392.003 179.996C392.003 191.024 383.032 199.996 372.004 199.996C360.976 199.996 352.004 191.024 352.004 179.996C352.004 168.968 360.976 159.997 372.004 159.997C383.032 159.997 392.003 168.967 392.003 179.996ZM212.008 39.9999C223.036 39.9999 232.008 48.9716 232.008 59.9993C232.008 71.027 223.036 79.9988 212.008 79.9988C200.981 79.9988 192.009 71.027 192.009 59.9993C192.009 48.9716 200.981 39.9999 212.008 39.9999ZM60.0125 151.997C71.0402 151.997 80.0119 160.969 80.0119 171.996C80.0119 183.024 71.0402 191.996 60.0125 191.996C48.9848 191.996 40.013 183.024 40.013 171.996C40.013 160.969 48.9848 151.997 60.0125 151.997Z" fill="#1F50FF"/>
</g>
<defs>
<clipPath id="clip0_214_9">
<rect width="512" height="512" fill="white"/>
</clipPath>
</defs>
</svg>
