<svg width="512" height="512" viewBox="0 0 512 512" fill="none" xmlns="http://www.w3.org/2000/svg">
<path d="M20 116H83.44C91.696 139.278 113.927 156 140 156C166.073 156 188.303 139.278 196.56 116H492C503.046 116 512 107.046 512 96C512 84.954 503.046 76 492 76H196.56C188.304 52.722 166.073 36 140 36C113.927 36 91.697 52.722 83.44 76H20C8.954 76 0 84.954 0 96C0 107.046 8.954 116 20 116ZM140 76C151.028 76 160 84.972 160 96C160 107.028 151.028 116 140 116C128.972 116 120 107.028 120 96C120 84.972 128.972 76 140 76Z" fill="#1F50FF"/>
<path d="M492 236H428.56C420.304 212.722 398.073 196 372 196C345.927 196 323.697 212.722 315.44 236H20C8.954 236 0 244.954 0 256C0 267.046 8.954 276 20 276H315.44C323.696 299.278 345.927 316 372 316C398.073 316 420.303 299.278 428.56 276H492C503.046 276 512 267.046 512 256C512 244.954 503.046 236 492 236ZM372 276C360.972 276 352 267.028 352 256C352 244.972 360.972 236 372 236C383.028 236 392 244.972 392 256C392 267.028 383.028 276 372 276Z" fill="#1F50FF"/>
<path d="M492 396H196.56C188.304 372.722 166.073 356 140 356C113.927 356 91.697 372.722 83.44 396H20C8.954 396 0 404.954 0 416C0 427.046 8.954 436 20 436H83.44C91.696 459.278 113.927 476 140 476C166.073 476 188.303 459.278 196.56 436H492C503.046 436 512 427.046 512 416C512 404.954 503.046 396 492 396ZM140 436C128.972 436 120 427.028 120 416C120 404.972 128.972 396 140 396C151.028 396 160 404.972 160 416C160 427.028 151.028 436 140 436Z" fill="#1F50FF"/>
</svg>
