<svg width="512" height="512" viewBox="0 0 512 512" fill="none" xmlns="http://www.w3.org/2000/svg">
<g clip-path="url(#clip0_223_62)">
<path d="M492 0H344.212C333.166 0 324.212 8.954 324.212 20C324.212 31.046 333.166 40 344.212 40H443.715L283.394 200.322C275.583 208.133 275.583 220.796 283.394 228.606C291.204 236.416 303.867 236.417 311.678 228.606L472 68.284V167.787C472 178.833 480.954 187.787 492 187.787C503.046 187.787 512 178.833 512 167.787V20C512 9.115 503.154 0 492 0Z" fill="#1F50FF"/>
<path d="M228.606 283.394C220.795 275.584 208.132 275.583 200.322 283.394L40 443.716V344.213C40 333.167 31.046 324.213 20 324.213C8.954 324.213 0 333.167 0 344.213V492C0 502.866 8.853 512 20 512H167.788C178.834 512 187.788 503.046 187.788 492C187.788 480.954 178.834 472 167.788 472H68.284L228.606 311.678C236.417 303.867 236.417 291.204 228.606 283.394Z" fill="#1F50FF"/>
</g>
<defs>
<clipPath id="clip0_223_62">
<rect width="512" height="512" fill="white"/>
</clipPath>
</defs>
</svg>
