<svg width="683" height="683" viewBox="0 0 683 683" fill="none" xmlns="http://www.w3.org/2000/svg">
<g clip-path="url(#clip0_214_26)">
<path d="M26.6667 158.224H341.333C356.063 158.224 368 146.286 368 131.557V26.6667C368 11.9375 356.063 0 341.333 0H26.6667C11.9375 0 0 11.9375 0 26.6667V131.557C0 146.281 11.9375 158.224 26.6667 158.224ZM53.3333 53.3333H314.667V104.891H53.3333V53.3333ZM26.6667 472.891H341.333C356.063 472.891 368 460.953 368 446.224V236.443C368 221.714 356.063 209.776 341.333 209.776H26.6667C11.9375 209.776 0 221.714 0 236.443V446.219C0 460.948 11.9375 472.891 26.6667 472.891ZM53.3333 263.109H314.667V419.552H53.3333V263.109ZM236.443 524.443H26.6667C11.9375 524.443 0 536.38 0 551.109V656C0 670.729 11.9375 682.667 26.6667 682.667H236.443C251.172 682.667 263.109 670.729 263.109 656V551.109C263.109 536.385 251.172 524.443 236.443 524.443ZM209.776 629.333H53.3333V577.776H209.776V629.333ZM656 524.443H341.333C326.604 524.443 314.667 536.38 314.667 551.109V656C314.667 670.729 326.604 682.667 341.333 682.667H656C670.729 682.667 682.667 670.729 682.667 656V551.109C682.667 536.385 670.729 524.443 656 524.443ZM629.333 629.333H368V577.776H629.333V629.333ZM656 0H446.224C431.495 0 419.557 11.9375 419.557 26.6667V446.224C419.557 460.953 431.495 472.891 446.224 472.891H656C670.729 472.891 682.667 460.953 682.667 446.224V26.6667C682.667 11.9375 670.729 0 656 0ZM629.333 419.557H472.891V53.3333H629.333V419.557Z" fill="#1F50FF"/>
</g>
<defs>
<clipPath id="clip0_214_26">
<rect width="682.667" height="682.667" fill="white"/>
</clipPath>
</defs>
</svg>
