<svg width="512" height="512" viewBox="0 0 512 512" fill="none" xmlns="http://www.w3.org/2000/svg">
<g clip-path="url(#clip0_214_6)">
<path d="M256 0C114.516 0 0 114.497 0 256C0 397.484 114.497 512 256 512C397.484 512 512 397.503 512 256C512 114.516 397.503 0 256 0ZM448.253 157.333H413.84C406.364 136.254 387.426 120.568 364.554 117.79C357.106 93.757 347.868 72.928 337.229 55.744C386.371 75.671 425.39 112.905 448.253 157.333ZM168.423 276.264C168.147 269.514 168 262.742 168 256C168 235.876 169.188 216.195 171.48 197.333H300.721C307.484 216.401 323.627 231.055 343.577 235.735C343.853 242.486 344 249.258 344 256C344 276.124 342.812 295.805 340.52 314.667H211.279C204.516 295.598 188.373 280.945 168.423 276.264ZM174.719 334.667C174.719 345.695 165.747 354.667 154.719 354.667C143.691 354.667 134.719 345.695 134.719 334.667C134.719 323.609 143.752 314.667 154.718 314.667C165.746 314.667 174.719 323.639 174.719 334.667ZM337.281 177.333C337.281 166.305 346.253 157.333 357.281 157.333C368.309 157.333 377.281 166.305 377.281 177.333C377.281 188.505 368.139 197.312 357.314 197.331C357.303 197.331 357.291 197.332 357.28 197.332C357.278 197.332 357.277 197.332 357.275 197.332C346.25 197.331 337.281 188.36 337.281 177.333ZM256 40C289.898 40 314.991 94.279 325.367 126.562C314.043 133.706 305.265 144.522 300.721 157.333H178.281C187.654 115.186 214.75 40 256 40ZM174.769 55.744C156.255 85.716 144.413 122.553 137.435 157.333H63.747C86.603 112.919 125.615 75.677 174.769 55.744ZM40 256C40 235.883 42.74 216.187 48.028 197.333H131.232C129.102 216.342 128 236.001 128 256C128 264.207 128.214 272.453 128.591 280.663C114.481 287.518 103.451 299.745 98.159 314.666H48.028C42.74 295.813 40 276.117 40 256ZM63.747 354.667H98.16C105.636 375.746 124.574 391.432 147.446 394.21C154.894 418.243 164.132 439.072 174.771 456.256C125.629 436.329 86.61 399.095 63.747 354.667ZM256 472C222.101 472 197.009 417.72 186.633 385.438C197.957 378.294 206.735 367.478 211.279 354.667H333.719C324.346 396.814 297.25 472 256 472ZM337.231 456.256C355.745 426.284 367.586 389.447 374.565 354.667H448.252C425.397 399.081 386.385 436.323 337.231 456.256ZM380.768 314.667C382.898 295.658 384 275.999 384 256C384 247.793 383.786 239.547 383.409 231.337C397.519 224.482 408.549 212.255 413.841 197.334H463.973C469.26 216.188 472 235.883 472 256C472 276.117 469.26 295.813 463.972 314.667H380.768Z" fill="#1F50FF"/>
</g>
<defs>
<clipPath id="clip0_214_6">
<rect width="512" height="512" fill="white"/>
</clipPath>
</defs>
</svg>
