<svg width="512" height="512" viewBox="0 0 512 512" fill="none" xmlns="http://www.w3.org/2000/svg">
<g clip-path="url(#clip0_223_56)">
<path d="M220 432C208.954 432 200 440.954 200 452V472H40V316H60C71.046 316 80 307.046 80 296C80 284.954 71.046 276 60 276H20C8.954 276 0 284.954 0 296V492C0 503.046 8.954 512 20 512H220C231.046 512 240 503.046 240 492V452C240 440.954 231.046 432 220 432Z" fill="#1F50FF"/>
<path d="M492 0H140C128.954 0 120 8.954 120 20V372C120 383.046 128.954 392 140 392H492C503.046 392 512 383.046 512 372V20C512 8.954 503.046 0 492 0ZM472 352H160V40H472V352Z" fill="#1F50FF"/>
<path d="M216 316H276C287.046 316 296 307.046 296 296C296 284.954 287.046 276 276 276H264.285L396 144.285V156C396 167.046 404.954 176 416 176C427.046 176 436 167.046 436 156V96C436 85.143 427.178 76.014 416.022 76.001C416.014 76.001 416.007 76 416 76H356C344.954 76 336 84.954 336 96C336 107.046 344.954 116 356 116H367.715L236 247.715V236C236 224.954 227.046 216 216 216C204.954 216 196 224.954 196 236V296C196 296.03 196.004 296.058 196.004 296.088C196.057 307.334 205.276 316 216 316Z" fill="#1F50FF"/>
</g>
<defs>
<clipPath id="clip0_223_56">
<rect width="512" height="512" fill="white"/>
</clipPath>
</defs>
</svg>
